<svg width="641" height="389" version="1.1" xmlns="http://www.w3.org/2000/svg" desc="Created with imagetracer.js version 1.2.6" ><path fill="rgb(24,43,82)" stroke="rgb(24,43,82)" stroke-width="1" opacity="0.06666666666666667" d="M 423.5 25 L 424 93.5 L 423 93.5 L 423.5 25 Z " /><path fill="rgb(24,43,82)" stroke="rgb(24,43,82)" stroke-width="1" opacity="0.06666666666666667" d="M 384.5 36 L 404.5 36 L 406 37.5 L 406 80.5 L 404.5 82 L 403 81.5 L 405 81 L 405 37 L 384.5 37 L 384.5 36 Z " /><path fill="rgb(24,43,82)" stroke="rgb(24,43,82)" stroke-width="1" opacity="0.06666666666666667" d="M 245.5 48 L 246 49.5 L 244 50.5 L 245.5 48 Z " /><path fill="rgb(24,43,82)" stroke="rgb(24,43,82)" stroke-width="1" opacity="0.06666666666666667" d="M 248.5 48 L 266.5 48 L 268 49.5 L 266.5 49 L 248.5 49 L 248.5 48 Z " /><path fill="rgb(24,43,82)" stroke="rgb(24,43,82)" stroke-width="1" opacity="0.06666666666666667" d="M 279 48 L 358 48.5 L 280 49 L 279.5 52 L 279 48 Z " /><path fill="rgb(24,43,82)" stroke="rgb(24,43,82)" stroke-width="1" opacity="0.06666666666666667" d="M 359.5 48 L 360.5 50 L 359.5 48 Z " /><path fill="rgb(24,43,82)" stroke="rgb(24,43,82)" stroke-width="1" opacity="0.06666666666666667" d="M 373.5 48 L 392.5 48 L 394 49.5 L 392.5 49 L 373.5 49 L 373.5 48 Z " /><path fill="rgb(24,43,82)" stroke="rgb(24,43,82)" stroke-width="1" opacity="0.06666666666666667" d="M 372.5 50 L 373 68.5 L 374 69.5 L 372 68.5 L 372.5 50 Z " /><path fill="rgb(24,43,82)" stroke="rgb(24,43,82)" stroke-width="1" opacity="0.06666666666666667" d="M 245.5 52 L 246 54.5 L 245 54.5 L 245.5 52 Z " /><path fill="rgb(24,43,82)" stroke="rgb(24,43,82)" stroke-width="1" opacity="0.06666666666666667" d="M 245.5 56 L 246 88.5 L 245 88.5 L 245.5 56 Z " /><path fill="rgb(24,43,82)" stroke="rgb(24,43,82)" stroke-width="1" opacity="0.06666666666666667" d="M 279.5 59 L 280 84.5 L 279 84.5 L 279.5 59 Z " /><path fill="rgb(24,43,82)" stroke="rgb(24,43,82)" stroke-width="1" opacity="0.06666666666666667" d="M 360.5 64 L 361 68 L 359 67.5 L 360.5 64 Z " /><path fill="rgb(24,43,82)" stroke="rgb(24,43,82)" stroke-width="1" opacity="0.06666666666666667" d="M 291.5 68 L 292 79.5 L 291 79.5 L 291.5 68 Z " /><path fill="rgb(24,43,82)" stroke="rgb(24,43,82)" stroke-width="1" opacity="0.06666666666666667" d="M 389.5 69 L 394 69.5 L 389.5 70 L 389.5 69 Z " /><path fill="rgb(24,43,82)" stroke="rgb(24,43,82)" stroke-width="1" opacity="0.06666666666666667" d="M 312.5 75 L 313 79.5 L 312 79.5 L 312.5 75 Z " /><path fill="rgb(24,43,82)" stroke="rgb(24,43,82)" stroke-width="1" opacity="0.06666666666666667" d="M 297.5 79 L 301 80.5 L 300.5 101 L 300 80 Q 296.7 80.8 297.5 79 Z " /><path fill="rgb(24,43,82)" stroke="rgb(24,43,82)" stroke-width="1" opacity="0.06666666666666667" d="M 329.5 79 L 330 100.5 L 329 100.5 L 329.5 79 Z " /><path fill="rgb(24,43,82)" stroke="rgb(24,43,82)" stroke-width="1" opacity="0.06666666666666667" d="M 341.5 80 L 342 100.5 L 341 100.5 L 341.5 80 Z " /><path fill="rgb(24,43,82)" stroke="rgb(24,43,82)" stroke-width="1" opacity="0.06666666666666667" d="M 362.5 80 L 363 100.5 L 362 100.5 L 362.5 80 Z " /><path fill="rgb(24,43,82)" stroke="rgb(24,43,82)" stroke-width="1" opacity="0.06666666666666667" d="M 375.5 81 L 374.5 83 L 375.5 81 Z " /><path fill="rgb(24,43,82)" stroke="rgb(24,43,82)" stroke-width="1" opacity="0.06666666666666667" d="M 312.5 85 L 313 87.5 L 312 87.5 L 312.5 85 Z " /><path fill="rgb(24,43,82)" stroke="rgb(24,43,82)" stroke-width="1" opacity="0.06666666666666667" d="M 312.5 90 L 313 92.5 L 312 92.5 L 312.5 90 Z " /><path fill="rgb(24,43,82)" stroke="rgb(24,43,82)" stroke-width="1" opacity="0.06666666666666667" d="M 423.5 97 L 424 98.5 L 422.5 100 L 397 100 L 396.5 192 L 396 100.5 L 397.5 99 L 423 99 L 423.5 97 Z " /><path fill="rgb(24,43,82)" stroke="rgb(24,43,82)" stroke-width="1" opacity="0.06666666666666667" d="M 329.5 109 L 330 112 L 374 112.5 L 329 113 L 329.5 109 Z " /><path fill="rgb(24,43,82)" stroke="rgb(24,43,82)" stroke-width="1" opacity="0.06666666666666667" d="M 268.5 112 L 312 112.5 L 268.5 113 L 268.5 112 Z " /><path fill="rgb(24,43,82)" stroke="rgb(24,43,82)" stroke-width="1" opacity="0.06666666666666667" d="M 245.5 122 L 246 126.5 L 245 126.5 L 245.5 122 Z " /><path fill="rgb(24,43,82)" stroke="rgb(24,43,82)" stroke-width="1" opacity="0.06666666666666667" d="M 329 130 L 331 130.5 L 329.5 134 L 329 130 Z " /><path fill="rgb(24,43,82)" stroke="rgb(24,43,82)" stroke-width="1" opacity="0.06666666666666667" d="M 368.5 130 L 374 130.5 L 368.5 131 L 368.5 130 Z " /><path fill="rgb(24,43,82)" stroke="rgb(24,43,82)" stroke-width="1" opacity="0.06666666666666667" d="M 329.5 138 L 330 167.5 L 329 167.5 L 329.5 138 Z " /><path fill="rgb(24,43,82)" stroke="rgb(24,43,82)" stroke-width="1" opacity="0.06666666666666667" d="M 360.5 141 L 363 142.5 L 361.5 142 L 360.5 141 Z " /><path fill="rgb(24,43,82)" stroke="rgb(24,43,82)" stroke-width="1" opacity="0.06666666666666667" d="M 279.5 142 L 280 162.5 L 279 162.5 L 279.5 142 Z " /><path fill="rgb(24,43,82)" stroke="rgb(24,43,82)" stroke-width="1" opacity="0.06666666666666667" d="M 300.5 142 L 301 162.5 L 300 162.5 L 300.5 142 Z " /><path fill="rgb(24,43,82)" stroke="rgb(24,43,82)" stroke-width="1" opacity="0.06666666666666667" d="M 341.5 142 L 341 143.5 L 340.5 146 L 340 143.5 L 341.5 142 Z " /><path fill="rgb(24,43,82)" stroke="rgb(24,43,82)" stroke-width="1" opacity="0.06666666666666667" d="M 219.5 143 L 245 143.5 L 219.5 144 L 219.5 143 Z " /><path fill="rgb(24,43,82)" stroke="rgb(24,43,82)" stroke-width="1" opacity="0.06666666666666667" d="M 218.5 145 L 219 223 L 222 223.5 L 218 224 L 218.5 145 Z " /><path fill="rgb(24,43,82)" stroke="rgb(24,43,82)" stroke-width="1" opacity="0.06666666666666667" d="M 362.5 153 L 363 162.5 L 362 162.5 L 362.5 153 Z " /><path fill="rgb(24,43,82)" stroke="rgb(24,43,82)" stroke-width="1" opacity="0.06666666666666667" d="M 267.5 160 L 266.5 162 L 267.5 160 Z " /><path fill="rgb(24,43,82)" stroke="rgb(24,43,82)" stroke-width="1" opacity="0.06666666666666667" d="M 340.5 160 L 342 162.5 L 340 161.5 L 340.5 160 Z " /><path fill="rgb(24,43,82)" stroke="rgb(24,43,82)" stroke-width="1" opacity="0.06666666666666667" d="M 236 161 L 238 161.5 L 236 162.5 L 236 161 Z " /><path fill="rgb(24,43,82)" stroke="rgb(24,43,82)" stroke-width="1" opacity="0.06666666666666667" d="M 240.5 161 L 250 161.5 L 240.5 162 L 240.5 161 Z " /><path fill="rgb(24,43,82)" stroke="rgb(24,43,82)" stroke-width="1" opacity="0.06666666666666667" d="M 236.5 164 L 237 167.5 L 236 167.5 L 236.5 164 Z " /><path fill="rgb(24,43,82)" stroke="rgb(24,43,82)" stroke-width="1" opacity="0.06666666666666667" d="M 350.5 166 L 351 171.5 L 350 171.5 L 350.5 166 Z " /><path fill="rgb(24,43,82)" stroke="rgb(24,43,82)" stroke-width="1" opacity="0.06666666666666667" d="M 362.5 168 L 363 180.5 L 362 180.5 L 362.5 168 Z " /><path fill="rgb(24,43,82)" stroke="rgb(24,43,82)" stroke-width="1" opacity="0.06666666666666667" d="M 329.5 169 L 330 173.5 L 329 173.5 L 329.5 169 Z " /><path fill="rgb(24,43,82)" stroke="rgb(24,43,82)" stroke-width="1" opacity="0.06666666666666667" d="M 283.5 174 L 307 174.5 L 283.5 175 L 283.5 174 Z " /><path fill="rgb(24,43,82)" stroke="rgb(24,43,82)" stroke-width="1" opacity="0.06666666666666667" d="M 308.5 174 L 312 174.5 L 308.5 175 L 308.5 174 Z " /><path fill="rgb(24,43,82)" stroke="rgb(24,43,82)" stroke-width="1" opacity="0.06666666666666667" d="M 331.5 174 L 334 174.5 L 331.5 175 L 331.5 174 Z " /><path fill="rgb(24,43,82)" stroke="rgb(24,43,82)" stroke-width="1" opacity="0.06666666666666667" d="M 335.5 174 L 350 174.5 L 335.5 175 L 335.5 174 Z " /><path fill="rgb(24,43,82)" stroke="rgb(24,43,82)" stroke-width="1" opacity="0.06666666666666667" d="M 280 175 L 282 175.5 L 280 176.5 L 280 175 Z " /><path fill="rgb(24,43,82)" stroke="rgb(24,43,82)" stroke-width="1" opacity="0.06666666666666667" d="M 236.5 184 L 237 197.5 L 236 197.5 L 236.5 184 Z " /><path fill="rgb(24,43,82)" stroke="rgb(24,43,82)" stroke-width="1" opacity="0.06666666666666667" d="M 269.5 192 L 267.5 195 L 264 194.5 Q 268.3 194.8 269.5 192 Z " /><path fill="rgb(24,43,82)" stroke="rgb(24,43,82)" stroke-width="1" opacity="0.06666666666666667" d="M 362.5 193 L 361.5 195 L 282 194.5 L 361.5 194 L 362.5 193 Z " /><path fill="rgb(24,43,82)" stroke="rgb(24,43,82)" stroke-width="1" opacity="0.06666666666666667" d="M 374.5 193 L 375.5 194 L 395.5 194 L 397 193.5 L 395.5 195 L 375.5 195 L 374.5 193 Z " /><path fill="rgb(24,43,82)" stroke="rgb(24,43,82)" stroke-width="1" opacity="0.06666666666666667" d="M 236.5 202 L 237 204.5 L 236 204.5 L 236.5 202 Z " /><path fill="rgb(24,43,82)" stroke="rgb(24,43,82)" stroke-width="1" opacity="0.06666666666666667" d="M 243.5 205 L 253 205.5 L 243.5 206 L 243.5 205 Z " /><path fill="rgb(24,43,82)" stroke="rgb(24,43,82)" stroke-width="1" opacity="0.06666666666666667" d="M 256.5 205 L 259 206.5 L 259 222.5 L 257.5 224 L 223 223.5 L 258 223 L 258 206.5 L 256.5 206 L 256.5 205 Z " /><path fill="rgb(24,43,82)" stroke="rgb(24,43,82)" stroke-width="1" opacity="0.06666666666666667" d="M 235.5 252 L 241 258.5 L 240 258.5 L 235.5 252 Z " /><path fill="rgb(24,43,82)" stroke="rgb(24,43,82)" stroke-width="1" opacity="0.06666666666666667" d="M 255.5 252 L 255 253.5 L 254.5 277 L 254 253.5 L 255.5 252 Z " /><path fill="rgb(24,43,82)" stroke="rgb(24,43,82)" stroke-width="1" opacity="0.06666666666666667" d="M 263.5 252 L 265 255.5 L 264 255.5 L 263.5 252 Z " /><path fill="rgb(24,43,82)" stroke="rgb(24,43,82)" stroke-width="1" opacity="0.06666666666666667" d="M 295.5 252 L 296 254.5 L 295 254.5 L 295.5 252 Z " /><path fill="rgb(24,43,82)" stroke="rgb(24,43,82)" stroke-width="1" opacity="0.06666666666666667" d="M 335.5 252 L 336 257.5 L 335 257.5 L 335.5 252 Z " /><path fill="rgb(24,43,82)" stroke="rgb(24,43,82)" stroke-width="1" opacity="0.06666666666666667" d="M 367.5 252 L 367 253.5 L 366.5 258 L 366 253.5 L 367.5 252 Z " /><path fill="rgb(24,43,82)" stroke="rgb(24,43,82)" stroke-width="1" opacity="0.06666666666666667" d="M 388.5 252 Q 391.5 253.5 390 259.5 L 386.5 262 L 386.5 261 L 389 259.5 Q 389.5 253.5 388.5 252 Z " /><path fill="rgb(24,43,82)" stroke="rgb(24,43,82)" stroke-width="1" opacity="0.06666666666666667" d="M 402.5 252 L 402 253.5 L 403 256.5 L 401 255.5 L 402.5 252 Z " /><path fill="rgb(24,43,82)" stroke="rgb(24,43,82)" stroke-width="1" opacity="0.06666666666666667" d="M 410.5 252 L 413 257.5 L 412 257.5 L 410.5 252 Z " /><path fill="rgb(24,43,82)" stroke="rgb(24,43,82)" stroke-width="1" opacity="0.06666666666666667" d="M 281.5 254 L 282 277.5 L 281 277.5 L 281.5 254 Z " /><path fill="rgb(24,43,82)" stroke="rgb(24,43,82)" stroke-width="1" opacity="0.06666666666666667" d="M 318.5 254 L 319.5 256 L 318.5 254 Z " /><path fill="rgb(24,43,82)" stroke="rgb(24,43,82)" stroke-width="1" opacity="0.06666666666666667" d="M 215.5 255 L 213.5 258 L 215.5 255 Z " /><path fill="rgb(24,43,82)" stroke="rgb(24,43,82)" stroke-width="1" opacity="0.06666666666666667" d="M 295.5 256 L 296 284 L 304 284 L 304 277.5 Q 305 275 309.5 276 L 312 279.5 L 310 278.5 L 310 277 L 305 277 Q 306.8 283.1 303.5 285 L 295.5 285 L 295 284.5 L 295.5 256 Z " /><path fill="rgb(24,43,82)" stroke="rgb(24,43,82)" stroke-width="1" opacity="0.06666666666666667" d="M 321.5 257 L 322 259.5 L 321 259.5 L 321.5 257 Z " /><path fill="rgb(24,43,82)" stroke="rgb(24,43,82)" stroke-width="1" opacity="0.06666666666666667" d="M 352.5 258 L 351.5 260 L 350 259.5 L 352.5 258 Z " /><path fill="rgb(24,43,82)" stroke="rgb(24,43,82)" stroke-width="1" opacity="0.06666666666666667" d="M 212.5 259 L 213 261.5 L 212 261.5 L 212.5 259 Z " /><path fill="rgb(24,43,82)" stroke="rgb(24,43,82)" stroke-width="1" opacity="0.06666666666666667" d="M 223.5 260 L 231 260.5 L 223.5 261 L 223.5 260 Z " /><path fill="rgb(24,43,82)" stroke="rgb(24,43,82)" stroke-width="1" opacity="0.06666666666666667" d="M 339.5 260 L 340 275.5 L 338 276.5 L 339 275.5 L 339.5 260 Z " /><path fill="rgb(24,43,82)" stroke="rgb(24,43,82)" stroke-width="1" opacity="0.06666666666666667" d="M 366.5 260 L 367 262.5 L 366 262.5 L 366.5 260 Z " /><path fill="rgb(24,43,82)" stroke="rgb(24,43,82)" stroke-width="1" opacity="0.06666666666666667" d="M 376 260 L 380 260.5 L 376 262.5 L 377 265.5 L 376 265.5 L 375 262.5 L 376 260 Z " /><path fill="rgb(24,43,82)" stroke="rgb(24,43,82)" stroke-width="1" opacity="0.06666666666666667" d="M 382.5 260 L 385 260.5 L 382.5 261 L 382.5 260 Z " /><path fill="rgb(24,43,82)" stroke="rgb(24,43,82)" stroke-width="1" opacity="0.06666666666666667" d="M 304.5 261 L 305 267.5 L 304 267.5 L 304.5 261 Z " /><path fill="rgb(24,43,82)" stroke="rgb(24,43,82)" stroke-width="1" opacity="0.06666666666666667" d="M 427.5 262 L 428 264.5 L 425.5 272 L 425 269.5 L 427.5 262 Z " /><path fill="rgb(24,43,82)" stroke="rgb(24,43,82)" stroke-width="1" opacity="0.06666666666666667" d="M 212.5 263 L 213 265.5 L 212 265.5 L 212.5 263 Z " /><path fill="rgb(24,43,82)" stroke="rgb(24,43,82)" stroke-width="1" opacity="0.06666666666666667" d="M 404.5 263 L 407 271.5 L 406 271.5 L 404.5 263 Z " /><path fill="rgb(24,43,82)" stroke="rgb(24,43,82)" stroke-width="1" opacity="0.06666666666666667" d="M 414.5 264 L 415 266 Q 417.7 267.1 417 264.5 L 418 264.5 L 416.5 267 L 414 265.5 L 414.5 264 Z " /><path fill="rgb(24,43,82)" stroke="rgb(24,43,82)" stroke-width="1" opacity="0.06666666666666667" d="M 366.5 265 L 367 276.5 L 366 276.5 L 366.5 265 Z " /><path fill="rgb(24,43,82)" stroke="rgb(24,43,82)" stroke-width="1" opacity="0.06666666666666667" d="M 378.5 266 L 381 266.5 L 378.5 267 L 378.5 266 Z " /><path fill="rgb(24,43,82)" stroke="rgb(24,43,82)" stroke-width="1" opacity="0.06666666666666667" d="M 382.5 266 L 388 266.5 L 382.5 267 L 382.5 266 Z " /><path fill="rgb(24,43,82)" stroke="rgb(24,43,82)" stroke-width="1" opacity="0.06666666666666667" d="M 212.5 267 L 213 269.5 L 212 269.5 L 212.5 267 Z " /><path fill="rgb(24,43,82)" stroke="rgb(24,43,82)" stroke-width="1" opacity="0.06666666666666667" d="M 321.5 269 L 322 270.5 L 319 272.5 L 321.5 269 Z " /><path fill="rgb(24,43,82)" stroke="rgb(24,43,82)" stroke-width="1" opacity="0.06666666666666667" d="M 212.5 271 L 213 273.5 L 212 273.5 L 212.5 271 Z " /><path fill="rgb(24,43,82)" stroke="rgb(24,43,82)" stroke-width="1" opacity="0.06666666666666667" d="M 264.5 273 L 265 275.5 L 264 275.5 L 264.5 273 Z " /><path fill="rgb(24,43,82)" stroke="rgb(24,43,82)" stroke-width="1" opacity="0.06666666666666667" d="M 388.5 273 L 389 275 L 383.5 276 L 383.5 275 Q 387.8 275.8 388.5 273 Z " /><path fill="rgb(24,43,82)" stroke="rgb(24,43,82)" stroke-width="1" opacity="0.06666666666666667" d="M 407.5 273 L 408 275 L 412 276.5 L 411.5 281 L 411 276 L 407 274.5 L 407.5 273 Z " /><path fill="rgb(24,43,82)" stroke="rgb(24,43,82)" stroke-width="1" opacity="0.06666666666666667" d="M 319.5 274 L 321 276.5 L 319 275.5 L 319.5 274 Z " /><path fill="rgb(24,43,82)" stroke="rgb(24,43,82)" stroke-width="1" opacity="0.06666666666666667" d="M 212.5 275 L 213 277.5 L 212 277.5 L 212.5 275 Z " /><path fill="rgb(24,43,82)" stroke="rgb(24,43,82)" stroke-width="1" opacity="0.06666666666666667" d="M 376.5 275 L 379 275.5 L 376 276 L 375.5 278 L 375 276.5 L 376.5 275 Z " /><path fill="rgb(24,43,82)" stroke="rgb(24,43,82)" stroke-width="1" opacity="0.06666666666666667" d="M 421.5 275 L 424 275.5 L 421 276 L 421 283.5 L 419.5 285 Q 412.8 286.8 411 283.5 L 412.5 284 L 420 284 L 420 276.5 L 421.5 275 Z " /><path fill="rgb(24,43,82)" stroke="rgb(24,43,82)" stroke-width="1" opacity="0.06666666666666667" d="M 240.5 277 L 241 278.5 L 239 279.5 L 240.5 277 Z " /><path fill="rgb(24,43,82)" stroke="rgb(24,43,82)" stroke-width="1" opacity="0.06666666666666667" d="M 336.5 277 L 336 278.5 L 336 284 L 348.5 284 L 348.5 285 L 336.5 285 L 335 283.5 Q 333.8 278.3 336.5 277 Z " /><path fill="rgb(24,43,82)" stroke="rgb(24,43,82)" stroke-width="1" opacity="0.06666666666666667" d="M 321.5 278 L 323 280.5 L 321 279.5 L 321.5 278 Z " /><path fill="rgb(24,43,82)" stroke="rgb(24,43,82)" stroke-width="1" opacity="0.06666666666666667" d="M 366.5 278 L 367 284 L 375.5 284 L 376 281.5 L 377 281.5 L 375.5 285 L 367.5 285 L 366 283.5 L 366.5 278 Z " /><path fill="rgb(24,43,82)" stroke="rgb(24,43,82)" stroke-width="1" opacity="0.06666666666666667" d="M 213.5 279 L 215.5 282 L 213.5 279 Z " /><path fill="rgb(24,43,82)" stroke="rgb(24,43,82)" stroke-width="1" opacity="0.06666666666666667" d="M 255.5 279 L 256 281 L 260.5 284 L 275 284.5 L 260.5 285 L 255 280.5 L 255.5 279 Z " /><path fill="rgb(24,43,82)" stroke="rgb(24,43,82)" stroke-width="1" opacity="0.06666666666666667" d="M 280.5 279 L 279.5 281 L 280.5 279 Z " /><path fill="rgb(24,43,82)" stroke="rgb(24,43,82)" stroke-width="1" opacity="0.06666666666666667" d="M 241.5 280 L 242 282.5 L 241 282.5 L 241.5 280 Z " /><path fill="rgb(24,43,82)" stroke="rgb(24,43,82)" stroke-width="1" opacity="0.06666666666666667" d="M 277.5 282 L 276.5 284 L 277.5 282 Z " /><path fill="rgb(24,43,82)" stroke="rgb(24,43,82)" stroke-width="1" opacity="0.06666666666666667" d="M 241.5 284 L 242 287.5 L 240 288.5 L 241.5 284 Z " /><path fill="rgb(24,43,82)" stroke="rgb(24,43,82)" stroke-width="1" opacity="0.06666666666666667" d="M 314.5 284 L 323 284.5 L 314.5 285 L 314.5 284 Z " /><path fill="rgb(24,43,82)" stroke="rgb(24,43,82)" stroke-width="1" opacity="0.06666666666666667" d="M 222.5 285 L 225 285.5 L 222.5 286 L 222.5 285 Z " /><path fill="rgb(24,43,82)" stroke="rgb(24,43,82)" stroke-width="1" opacity="0.06666666666666667" d="M 226.5 286 L 229 286.5 L 226.5 287 L 226.5 286 Z " /><path fill="rgb(24,43,82)" stroke="rgb(24,43,82)" stroke-width="1" opacity="0.06666666666666667" d="M 231.5 287 L 235 287.5 L 231.5 288 L 231.5 287 Z " /><path fill="rgb(24,43,82)" stroke="rgb(24,43,82)" stroke-width="1" opacity="0.06666666666666667" d="M 13.5 308 L 15 310.5 L 14 310.5 L 13.5 308 Z " /><path fill="rgb(24,43,82)" stroke="rgb(24,43,82)" stroke-width="1" opacity="0.06666666666666667" d="M 31.5 308 L 32 317.5 L 31 317.5 L 31.5 308 Z " /><path fill="rgb(24,43,82)" stroke="rgb(24,43,82)" stroke-width="1" opacity="0.06666666666666667" d="M 52.5 308 L 52 309.5 L 51.5 316 L 51 309.5 L 52.5 308 Z " /><path fill="rgb(24,43,82)" stroke="rgb(24,43,82)" stroke-width="1" opacity="0.06666666666666667" d="M 74.5 308 L 74 309.5 L 73.5 313 L 73 309.5 L 74.5 308 Z " /><path fill="rgb(24,43,82)" stroke="rgb(24,43,82)" stroke-width="1" opacity="0.06666666666666667" d="M 77.5 308 L 78 321.5 L 75.5 323 L 75.5 322 L 77 321.5 L 77.5 308 Z " /><path fill="rgb(24,43,82)" stroke="rgb(24,43,82)" stroke-width="1" opacity="0.06666666666666667" d="M 108.5 308 L 110 313.5 L 108 312.5 L 108.5 308 Z " /><path fill="rgb(24,43,82)" stroke="rgb(24,43,82)" stroke-width="1" opacity="0.06666666666666667" d="M 115.5 308 L 116 312.5 L 115 312.5 L 115.5 308 Z " /><path fill="rgb(24,43,82)" stroke="rgb(24,43,82)" stroke-width="1" opacity="0.06666666666666667" d="M 119.5 308 L 120 314.5 L 119 314.5 L 119.5 308 Z " /><path fill="rgb(24,43,82)" stroke="rgb(24,43,82)" stroke-width="1" opacity="0.06666666666666667" d="M 138.5 308 L 138 309.5 L 137.5 321 L 137 309.5 L 138.5 308 Z " /><path fill="rgb(24,43,82)" stroke="rgb(24,43,82)" stroke-width="1" opacity="0.06666666666666667" d="M 149.5 308 L 149 309.5 L 148.5 316 L 143.5 310 L 148 313.5 Q 147 309 149.5 308 Z " /><path fill="rgb(24,43,82)" stroke="rgb(24,43,82)" stroke-width="1" opacity="0.06666666666666667" d="M 161.5 308 L 160.5 310 L 161.5 308 Z " /><path fill="rgb(24,43,82)" stroke="rgb(24,43,82)" stroke-width="1" opacity="0.06666666666666667" d="M 174.5 308 L 175 310.5 L 174 310.5 L 174.5 308 Z " /><path fill="rgb(24,43,82)" stroke="rgb(24,43,82)" stroke-width="1" opacity="0.06666666666666667" d="M 259.5 308 L 261 308.5 L 258.5 310 L 259.5 308 Z " /><path fill="rgb(24,43,82)" stroke="rgb(24,43,82)" stroke-width="1" opacity="0.06666666666666667" d="M 270.5 308 L 272 310.5 L 270 311.5 L 271 309.5 L 270.5 308 Z " /><path fill="rgb(24,43,82)" stroke="rgb(24,43,82)" stroke-width="1" opacity="0.06666666666666667" d="M 279.5 308 L 279 309.5 L 278.5 314 L 278 309.5 L 279.5 308 Z " /><path fill="rgb(24,43,82)" stroke="rgb(24,43,82)" stroke-width="1" opacity="0.06666666666666667" d="M 299.5 308 L 300 322 L 303 322.5 L 300.5 323 L 299 321.5 L 299.5 308 Z " /><path fill="rgb(24,43,82)" stroke="rgb(24,43,82)" stroke-width="1" opacity="0.06666666666666667" d="M 355.5 308 L 356 311.5 L 355 311.5 L 355.5 308 Z " /><path fill="rgb(24,43,82)" stroke="rgb(24,43,82)" stroke-width="1" opacity="0.06666666666666667" d="M 411.5 308 L 411 309.5 L 411 311 L 416 311 L 416 321.5 L 418.5 322 L 418.5 323 L 415 321.5 L 415 312 L 411.5 312 L 410 309.5 L 411.5 308 Z " /><path fill="rgb(24,43,82)" stroke="rgb(24,43,82)" stroke-width="1" opacity="0.06666666666666667" d="M 431.5 308 L 432 322 Q 436.5 323.8 435 318.5 Q 436.3 315.8 441.5 317 Q 444 318.2 443 322 Q 446.8 323.5 446 320.5 L 447 320.5 L 445.5 323 L 442 321.5 L 442 318 L 436 318 Q 437 321.8 434.5 323 L 431 321.5 L 431.5 308 Z " /><path fill="rgb(24,43,82)" stroke="rgb(24,43,82)" stroke-width="1" opacity="0.06666666666666667" d="M 435.5 308 L 436 313 L 438 313.5 L 436.5 314 Q 433.6 312.6 435.5 308 Z " /><path fill="rgb(24,43,82)" stroke="rgb(24,43,82)" stroke-width="1" opacity="0.06666666666666667" d="M 442.5 308 L 443 311.5 L 442 311.5 L 442.5 308 Z " /><path fill="rgb(24,43,82)" stroke="rgb(24,43,82)" stroke-width="1" opacity="0.06666666666666667" d="M 478.5 308 L 481 311.5 L 480 311.5 L 478.5 308 Z " /><path fill="rgb(24,43,82)" stroke="rgb(24,43,82)" stroke-width="1" opacity="0.06666666666666667" d="M 531.5 308 L 530.5 310 L 531.5 308 Z " /><path fill="rgb(24,43,82)" stroke="rgb(24,43,82)" stroke-width="1" opacity="0.06666666666666667" d="M 563.5 308 L 561.5 311 L 563.5 308 Z " /><path fill="rgb(24,43,82)" stroke="rgb(24,43,82)" stroke-width="1" opacity="0.06666666666666667" d="M 582.5 308 L 583 322 L 586 321.5 L 586 308.5 L 587 308.5 L 587 321.5 L 585.5 323 L 582 321.5 L 582.5 308 Z " /><path fill="rgb(24,43,82)" stroke="rgb(24,43,82)" stroke-width="1" opacity="0.06666666666666667" d="M 620.5 308 L 627 313.5 L 627.5 312 L 628 313.5 L 626.5 315 L 620.5 308 Z " /><path fill="rgb(24,43,82)" stroke="rgb(24,43,82)" stroke-width="1" opacity="0.06666666666666667" d="M 627 308 L 631 308.5 L 628 309 L 627.5 311 L 627 308 Z " /><path fill="rgb(24,43,82)" stroke="rgb(24,43,82)" stroke-width="1" opacity="0.06666666666666667" d="M 194.5 309 L 195 322 L 198 322.5 L 195.5 323 L 194 321.5 L 194.5 309 Z " /><path fill="rgb(24,43,82)" stroke="rgb(24,43,82)" stroke-width="1" opacity="0.06666666666666667" d="M 230.5 309 L 231 314.5 L 230 314.5 L 230.5 309 Z " /><path fill="rgb(24,43,82)" stroke="rgb(24,43,82)" stroke-width="1" opacity="0.06666666666666667" d="M 237.5 309 L 238 318.5 L 237 318.5 L 237.5 309 Z " /><path fill="rgb(24,43,82)" stroke="rgb(24,43,82)" stroke-width="1" opacity="0.06666666666666667" d="M 251.5 309 L 252 310.5 L 250 311.5 L 251.5 309 Z " /><path fill="rgb(24,43,82)" stroke="rgb(24,43,82)" stroke-width="1" opacity="0.06666666666666667" d="M 304.5 309 L 306.5 312 L 304.5 309 Z " /><path fill="rgb(24,43,82)" stroke="rgb(24,43,82)" stroke-width="1" opacity="0.06666666666666667" d="M 446.5 309 L 447 311.5 L 446 311.5 L 446.5 309 Z " /><path fill="rgb(24,43,82)" stroke="rgb(24,43,82)" stroke-width="1" opacity="0.06666666666666667" d="M 466.5 309 L 467 310.5 L 466 311.5 L 465.5 320 L 465 311.5 L 466.5 309 Z " /><path fill="rgb(24,43,82)" stroke="rgb(24,43,82)" stroke-width="1" opacity="0.06666666666666667" d="M 487.5 309 L 488 320.5 L 487 320.5 L 487.5 309 Z " /><path fill="rgb(24,43,82)" stroke="rgb(24,43,82)" stroke-width="1" opacity="0.06666666666666667" d="M 501.5 309 Q 503.8 309.8 503 313.5 L 502 313.5 L 501.5 309 Z " /><path fill="rgb(24,43,82)" stroke="rgb(24,43,82)" stroke-width="1" opacity="0.06666666666666667" d="M 523.5 309 L 524 310.5 L 522 311.5 L 523.5 309 Z " /><path fill="rgb(24,43,82)" stroke="rgb(24,43,82)" stroke-width="1" opacity="0.06666666666666667" d="M 616.5 309 L 617 322 L 620.5 321 L 619.5 323 L 616 321.5 L 616.5 309 Z " /><path fill="rgb(24,43,82)" stroke="rgb(24,43,82)" stroke-width="1" opacity="0.06666666666666667" d="M 66.5 310 L 67 312.5 L 66 312.5 L 66.5 310 Z " /><path fill="rgb(24,43,82)" stroke="rgb(24,43,82)" stroke-width="1" opacity="0.06666666666666667" d="M 130.5 310 L 131 321.5 L 127.5 323 L 127.5 322 L 130 321.5 L 130.5 310 Z " /><path fill="rgb(24,43,82)" stroke="rgb(24,43,82)" stroke-width="1" opacity="0.06666666666666667" d="M 292.5 310 L 291.5 312 L 284 311.5 L 292.5 310 Z " /><path fill="rgb(24,43,82)" stroke="rgb(24,43,82)" stroke-width="1" opacity="0.06666666666666667" d="M 310.5 310 L 311 313.5 L 310 313.5 L 310.5 310 Z " /><path fill="rgb(24,43,82)" stroke="rgb(24,43,82)" stroke-width="1" opacity="0.06666666666666667" d="M 374.5 310 L 375 313.5 L 374 313.5 L 374.5 310 Z " /><path fill="rgb(24,43,82)" stroke="rgb(24,43,82)" stroke-width="1" opacity="0.06666666666666667" d="M 382.5 310 L 381.5 312 L 382.5 310 Z " /><path fill="rgb(24,43,82)" stroke="rgb(24,43,82)" stroke-width="1" opacity="0.06666666666666667" d="M 594.5 310 L 594 311.5 Q 592.3 317.8 595 319.5 L 593 318.5 Q 591.3 311.8 594.5 310 Z " /><path fill="rgb(24,43,82)" stroke="rgb(24,43,82)" stroke-width="1" opacity="0.06666666666666667" d="M 59.5 311 L 63 312.5 L 61.5 312 Q 58.5 312.5 59.5 311 Z " /><path fill="rgb(24,43,82)" stroke="rgb(24,43,82)" stroke-width="1" opacity="0.06666666666666667" d="M 166.5 311 L 170 311.5 L 166.5 312 L 166.5 311 Z " /><path fill="rgb(24,43,82)" stroke="rgb(24,43,82)" stroke-width="1" opacity="0.06666666666666667" d="M 200.5 311 L 203 311.5 L 200.5 312 L 200.5 311 Z " /><path fill="rgb(24,43,82)" stroke="rgb(24,43,82)" stroke-width="1" opacity="0.06666666666666667" d="M 241 311 L 243 311.5 L 241 312.5 L 241 311 Z " /><path fill="rgb(24,43,82)" stroke="rgb(24,43,82)" stroke-width="1" opacity="0.06666666666666667" d="M 246.5 311 L 249 311.5 L 246.5 312 L 246.5 311 Z " /><path fill="rgb(24,43,82)" stroke="rgb(24,43,82)" stroke-width="1" opacity="0.06666666666666667" d="M 263.5 311 L 268 311.5 L 263.5 312 L 263.5 311 Z " /><path fill="rgb(24,43,82)" stroke="rgb(24,43,82)" stroke-width="1" opacity="0.06666666666666667" d="M 321.5 311 L 322 319.5 L 321 319.5 L 321.5 311 Z " /><path fill="rgb(24,43,82)" stroke="rgb(24,43,82)" stroke-width="1" opacity="0.06666666666666667" d="M 326.5 311 L 333 311.5 L 326 312 L 325.5 319 L 325 312.5 L 326.5 311 Z " /><path fill="rgb(24,43,82)" stroke="rgb(24,43,82)" stroke-width="1" opacity="0.06666666666666667" d="M 347.5 311 L 353 311.5 L 347.5 312 L 347.5 311 Z " /><path fill="rgb(24,43,82)" stroke="rgb(24,43,82)" stroke-width="1" opacity="0.06666666666666667" d="M 420.5 311 L 425 311.5 L 420.5 312 L 420.5 311 Z " /><path fill="rgb(24,43,82)" stroke="rgb(24,43,82)" stroke-width="1" opacity="0.06666666666666667" d="M 493.5 311 L 497 311.5 L 493.5 312 L 493.5 311 Z " /><path fill="rgb(24,43,82)" stroke="rgb(24,43,82)" stroke-width="1" opacity="0.06666666666666667" d="M 514.5 311 L 520 311.5 L 514.5 312 L 514.5 311 Z " /><path fill="rgb(24,43,82)" stroke="rgb(24,43,82)" stroke-width="1" opacity="0.06666666666666667" d="M 534.5 311 L 540 311.5 L 534 312 L 533.5 317 L 533 312.5 L 534.5 311 Z " /><path fill="rgb(24,43,82)" stroke="rgb(24,43,82)" stroke-width="1" opacity="0.06666666666666667" d="M 566.5 311 L 570 311.5 L 565.5 313 L 566.5 311 Z " /><path fill="rgb(24,43,82)" stroke="rgb(24,43,82)" stroke-width="1" opacity="0.06666666666666667" d="M 599.5 311 L 598 313.5 L 599 317.5 L 597 316.5 Q 596.3 311.8 599.5 311 Z " /><path fill="rgb(24,43,82)" stroke="rgb(24,43,82)" stroke-width="1" opacity="0.06666666666666667" d="M 23.5 312 L 24 313.5 L 22.5 316 L 22 314.5 L 23.5 312 Z " /><path fill="rgb(24,43,82)" stroke="rgb(24,43,82)" stroke-width="1" opacity="0.06666666666666667" d="M 126.5 312 L 127 314.5 L 126 314.5 L 126.5 312 Z " /><path fill="rgb(24,43,82)" stroke="rgb(24,43,82)" stroke-width="1" opacity="0.06666666666666667" d="M 164.5 312 L 165.5 314 Q 162.7 314.7 164.5 312 Z " /><path fill="rgb(24,43,82)" stroke="rgb(24,43,82)" stroke-width="1" opacity="0.06666666666666667" d="M 386.5 312 L 389 312.5 Q 386.9 315.8 386.5 312 Z " /><path fill="rgb(24,43,82)" stroke="rgb(24,43,82)" stroke-width="1" opacity="0.06666666666666667" d="M 392.5 312 L 393 315.5 L 391.5 321 L 391 316.5 L 392.5 312 Z " /><path fill="rgb(24,43,82)" stroke="rgb(24,43,82)" stroke-width="1" opacity="0.06666666666666667" d="M 476.5 312 L 477 314.5 Q 475.8 317.3 470.5 316 L 470.5 315 Q 477.5 317.3 476.5 312 Z " /><path fill="rgb(24,43,82)" stroke="rgb(24,43,82)" stroke-width="1" opacity="0.06666666666666667" d="M 609.5 312 L 610 318.5 L 607.5 322 Q 604.3 324.3 597.5 323 L 597.5 322 Q 605 323 608 321 L 609.5 312 Z " /><path fill="rgb(24,43,82)" stroke="rgb(24,43,82)" stroke-width="1" opacity="0.06666666666666667" d="M 11.5 313 L 14 317.5 L 12 316.5 L 11.5 313 Z " /><path fill="rgb(24,43,82)" stroke="rgb(24,43,82)" stroke-width="1" opacity="0.06666666666666667" d="M 18.5 313 L 18 314.5 L 17.5 316 L 17 314.5 L 18.5 313 Z " /><path fill="rgb(24,43,82)" stroke="rgb(24,43,82)" stroke-width="1" opacity="0.06666666666666667" d="M 173.5 313 Q 176.8 314.8 175 321.5 L 173.5 323 L 162.5 323 L 160 321.5 L 161.5 321 L 162.5 322 L 174 322 Q 174.7 315.1 173.5 313 Z " /><path fill="rgb(24,43,82)" stroke="rgb(24,43,82)" stroke-width="1" opacity="0.06666666666666667" d="M 290.5 313 L 292 316.5 L 290.5 319 L 285.5 318 L 283 319 L 283.5 317 L 291 317 L 291 314.5 L 290.5 313 Z " /><path fill="rgb(24,43,82)" stroke="rgb(24,43,82)" stroke-width="1" opacity="0.06666666666666667" d="M 380.5 313 L 379.5 315 L 380.5 313 Z " /><path fill="rgb(24,43,82)" stroke="rgb(24,43,82)" stroke-width="1" opacity="0.06666666666666667" d="M 573.5 313 L 575.5 316 L 573.5 313 Z " /><path fill="rgb(24,43,82)" stroke="rgb(24,43,82)" stroke-width="1" opacity="0.06666666666666667" d="M 204.5 314 L 203.5 316 L 199 315.5 L 204.5 314 Z " /><path fill="rgb(24,43,82)" stroke="rgb(24,43,82)" stroke-width="1" opacity="0.06666666666666667" d="M 250.5 314 L 251 316.5 L 246.5 319 L 242.5 319 L 241 317.5 L 250 317 L 250.5 314 Z " /><path fill="rgb(24,43,82)" stroke="rgb(24,43,82)" stroke-width="1" opacity="0.06666666666666667" d="M 354.5 314 L 355 316.5 L 354 319 L 350.5 318 L 348.5 319 L 346 318.5 Q 345.4 315.8 351.5 317 Q 352.8 319.3 354 316.5 L 354.5 314 Z " /><path fill="rgb(24,43,82)" stroke="rgb(24,43,82)" stroke-width="1" opacity="0.06666666666666667" d="M 521.5 314 L 522 316.5 L 521 316.5 L 521.5 314 Z " /><path fill="rgb(24,43,82)" stroke="rgb(24,43,82)" stroke-width="1" opacity="0.06666666666666667" d="M 554.5 314 L 555 319.5 L 554 319.5 L 554.5 314 Z " /><path fill="rgb(24,43,82)" stroke="rgb(24,43,82)" stroke-width="1" opacity="0.06666666666666667" d="M 561.5 314 L 563 316.5 L 562 316.5 L 561.5 314 Z " /><path fill="rgb(24,43,82)" stroke="rgb(24,43,82)" stroke-width="1" opacity="0.06666666666666667" d="M 142.5 315 L 148.5 322 L 142.5 315 Z " /><path fill="rgb(24,43,82)" stroke="rgb(24,43,82)" stroke-width="1" opacity="0.06666666666666667" d="M 258.5 315 L 259.5 317 L 258.5 315 Z " /><path fill="rgb(24,43,82)" stroke="rgb(24,43,82)" stroke-width="1" opacity="0.06666666666666667" d="M 375.5 315 L 377 322 L 380.5 321 L 379.5 323 L 376 321.5 L 375.5 315 Z " /><path fill="rgb(24,43,82)" stroke="rgb(24,43,82)" stroke-width="1" opacity="0.06666666666666667" d="M 480.5 315 L 481 316.5 L 479 317.5 L 480.5 315 Z " /><path fill="rgb(24,43,82)" stroke="rgb(24,43,82)" stroke-width="1" opacity="0.06666666666666667" d="M 621.5 315 L 623.5 318 L 621.5 315 Z " /><path fill="rgb(24,43,82)" stroke="rgb(24,43,82)" stroke-width="1" opacity="0.06666666666666667" d="M 43.5 316 L 41.5 319 L 36 317.5 L 43.5 316 Z " /><path fill="rgb(24,43,82)" stroke="rgb(24,43,82)" stroke-width="1" opacity="0.06666666666666667" d="M 65.5 316 L 65 317.5 L 67 323 Q 62.3 323.9 60 321.5 L 61.5 321 L 66 322 L 64 317.5 L 65.5 316 Z " /><path fill="rgb(24,43,82)" stroke="rgb(24,43,82)" stroke-width="1" opacity="0.06666666666666667" d="M 97.5 316 L 96.5 318 L 89 317.5 L 97.5 316 Z " /><path fill="rgb(24,43,82)" stroke="rgb(24,43,82)" stroke-width="1" opacity="0.06666666666666667" d="M 105.5 316 L 108 317.5 L 106.5 318 L 105.5 316 Z " /><path fill="rgb(24,43,82)" stroke="rgb(24,43,82)" stroke-width="1" opacity="0.06666666666666667" d="M 383.5 316 Q 385.8 315.3 385 317.5 L 387 320.5 L 385 319.5 L 383.5 316 Z " /><path fill="rgb(24,43,82)" stroke="rgb(24,43,82)" stroke-width="1" opacity="0.06666666666666667" d="M 164 317 L 170.5 317 L 171 318.5 L 169.5 318 L 164.5 319 L 164 317 Z " /><path fill="rgb(24,43,82)" stroke="rgb(24,43,82)" stroke-width="1" opacity="0.06666666666666667" d="M 261 317 L 267.5 317 L 268 318.5 L 264.5 318 L 261.5 319 L 261 317 Z " /><path fill="rgb(24,43,82)" stroke="rgb(24,43,82)" stroke-width="1" opacity="0.06666666666666667" d="M 516.5 317 Q 518.8 316.3 518 318.5 L 516.5 317 Z " /><path fill="rgb(24,43,82)" stroke="rgb(24,43,82)" stroke-width="1" opacity="0.06666666666666667" d="M 519.5 317 L 520.5 319 L 519.5 317 Z " /><path fill="rgb(24,43,82)" stroke="rgb(24,43,82)" stroke-width="1" opacity="0.06666666666666667" d="M 569.5 317 Q 573.3 316 572 319 L 568 318.5 L 569.5 317 Z " /><path fill="rgb(24,43,82)" stroke="rgb(24,43,82)" stroke-width="1" opacity="0.06666666666666667" d="M 114.5 318 L 115 321.5 Q 114.3 323.8 110.5 323 L 110.5 322 L 114 322 L 114.5 318 Z " /><path fill="rgb(24,43,82)" stroke="rgb(24,43,82)" stroke-width="1" opacity="0.06666666666666667" d="M 219.5 318 L 220 321.5 L 216.5 323 L 216.5 322 L 219 322 L 219.5 318 Z " /><path fill="rgb(24,43,82)" stroke="rgb(24,43,82)" stroke-width="1" opacity="0.06666666666666667" d="M 332.5 318 L 335 319.5 L 333.5 319 L 332.5 318 Z " /><path fill="rgb(24,43,82)" stroke="rgb(24,43,82)" stroke-width="1" opacity="0.06666666666666667" d="M 382.5 318 L 381.5 320 L 382.5 318 Z " /><path fill="rgb(24,43,82)" stroke="rgb(24,43,82)" stroke-width="1" opacity="0.06666666666666667" d="M 491.5 318 L 492 321.5 L 488.5 323 L 488.5 322 L 491 322 L 491.5 318 Z " /><path fill="rgb(24,43,82)" stroke="rgb(24,43,82)" stroke-width="1" opacity="0.06666666666666667" d="M 493.5 318 L 496.5 322 L 493.5 318 Z " /><path fill="rgb(24,43,82)" stroke="rgb(24,43,82)" stroke-width="1" opacity="0.06666666666666667" d="M 89.5 319 L 90 321.5 Q 89.3 323.8 85.5 323 L 85.5 322 Q 90.5 323.5 89.5 319 Z " /><path fill="rgb(24,43,82)" stroke="rgb(24,43,82)" stroke-width="1" opacity="0.06666666666666667" d="M 229.5 319 L 231 321.5 Q 230 324 225.5 323 L 223.5 320 Q 224.9 323.3 230 322 L 229.5 319 Z " /><path fill="rgb(24,43,82)" stroke="rgb(24,43,82)" stroke-width="1" opacity="0.06666666666666667" d="M 355.5 319 L 356 321.5 L 354.5 323 L 344.5 323 L 342.5 320 L 344.5 322 L 355 322 L 355.5 319 Z " /><path fill="rgb(24,43,82)" stroke="rgb(24,43,82)" stroke-width="1" opacity="0.06666666666666667" d="M 500.5 319 Q 505 321 501.5 323 L 498 322.5 L 502 321.5 L 500.5 319 Z " /><path fill="rgb(24,43,82)" stroke="rgb(24,43,82)" stroke-width="1" opacity="0.06666666666666667" d="M 522.5 319 L 523.5 321 L 522.5 319 Z " /><path fill="rgb(24,43,82)" stroke="rgb(24,43,82)" stroke-width="1" opacity="0.06666666666666667" d="M 543.5 319 L 544 321.5 L 540.5 323 L 540.5 322 Q 544.5 323.1 543.5 319 Z " /><path fill="rgb(24,43,82)" stroke="rgb(24,43,82)" stroke-width="1" opacity="0.06666666666666667" d="M 237.5 320 L 240.5 322 L 251 322 L 251.5 320 L 252 321.5 L 250.5 323 L 240.5 323 L 237.5 320 Z " /><path fill="rgb(24,43,82)" stroke="rgb(24,43,82)" stroke-width="1" opacity="0.06666666666666667" d="M 271.5 320 L 269.5 323 L 258 322.5 L 269.5 322 L 271.5 320 Z " /><path fill="rgb(24,43,82)" stroke="rgb(24,43,82)" stroke-width="1" opacity="0.06666666666666667" d="M 308.5 320 L 309.5 322 L 308.5 320 Z " /><path fill="rgb(24,43,82)" stroke="rgb(24,43,82)" stroke-width="1" opacity="0.06666666666666667" d="M 15.5 321 L 18.5 322 L 20 321.5 L 16.5 323 L 15.5 321 Z " /><path fill="rgb(24,43,82)" stroke="rgb(24,43,82)" stroke-width="1" opacity="0.06666666666666667" d="M 32.5 321 L 33.5 322 L 45 322.5 L 33.5 323 L 32.5 321 Z " /><path fill="rgb(24,43,82)" stroke="rgb(24,43,82)" stroke-width="1" opacity="0.06666666666666667" d="M 152.5 321 L 151.5 323 L 150 322.5 L 152.5 321 Z " /><path fill="rgb(24,43,82)" stroke="rgb(24,43,82)" stroke-width="1" opacity="0.06666666666666667" d="M 292.5 321 L 291.5 323 L 281 322.5 L 291.5 322 L 292.5 321 Z " /><path fill="rgb(24,43,82)" stroke="rgb(24,43,82)" stroke-width="1" opacity="0.06666666666666667" d="M 322.5 321 L 323.5 322 L 333.5 322 L 335 321.5 L 333.5 323 L 323.5 323 L 322.5 321 Z " /><path fill="rgb(24,43,82)" stroke="rgb(24,43,82)" stroke-width="1" opacity="0.06666666666666667" d="M 465.5 321 L 470 322.5 L 466.5 323 L 465.5 321 Z " /><path fill="rgb(24,43,82)" stroke="rgb(24,43,82)" stroke-width="1" opacity="0.06666666666666667" d="M 510.5 321 L 511.5 322 L 522 322.5 L 511.5 323 L 510.5 321 Z " /><path fill="rgb(24,43,82)" stroke="rgb(24,43,82)" stroke-width="1" opacity="0.06666666666666667" d="M 530.5 321 L 536 322.5 L 531.5 323 L 530.5 321 Z " /><path fill="rgb(24,43,82)" stroke="rgb(24,43,82)" stroke-width="1" opacity="0.06666666666666667" d="M 554.5 321 L 553.5 323 L 550 322.5 L 554.5 321 Z " /><path fill="rgb(24,43,82)" stroke="rgb(24,43,82)" stroke-width="1" opacity="0.06666666666666667" d="M 574.5 321 L 573.5 323 L 561 322.5 L 573.5 322 L 574.5 321 Z " /><path fill="rgb(24,43,82)" stroke="rgb(24,43,82)" stroke-width="1" opacity="0.06666666666666667" d="M 626.5 321 L 631 322.5 L 628.5 323 L 626.5 321 Z " /><path fill="rgb(24,43,82)" stroke="rgb(24,43,82)" stroke-width="1" opacity="0.06666666666666667" d="M 311.5 322 L 314 322.5 L 311.5 323 L 311.5 322 Z " /><path fill="rgb(24,43,82)" stroke="rgb(24,43,82)" stroke-width="1" opacity="0.06666666666666667" d="M 388.5 322 L 391 322.5 L 388.5 323 L 388.5 322 Z " /><path fill="rgb(24,43,82)" stroke="rgb(24,43,82)" stroke-width="1" opacity="0.06666666666666667" d="M 401.5 322 L 404 322.5 L 401.5 323 L 401.5 322 Z " /><path fill="rgb(0,0,0)" stroke="rgb(0,0,0)" stroke-width="1" opacity="0" d="M 0 0 L 641 0 L 641 389 L 0 389 L 0 0 Z M 383 19 L 383 36 L 385 37 L 405 37 L 405 81 L 376 81 L 374 83 L 374 112 L 330 112 L 329 107 Q 328 102 330 101 L 330 68 L 357 68 L 358 69 L 361 68 L 361 50 L 360 48 L 279 48 L 279 101 L 301 101 L 301 81 L 300 79 L 292 79 L 292 68 L 312 68 L 312 112 L 268 112 L 268 50 L 267 48 L 246 48 L 245 50 L 245 52 L 245 143 L 245 143 L 219 143 L 218 146 L 218 224 L 258 224 L 259 223 L 259 207 L 258 205 L 256 206 L 253 205 L 240 206 L 238 206 L 236 201 L 237 198 L 237 185 L 236 184 Q 235 178 237 177 L 236 175 L 237 165 Q 234 163 239 161 L 241 162 L 254 161 L 256 161 L 266 161 L 267 162 L 268 161 L 268 131 L 271 130 L 309 130 L 311 130 L 312 132 L 312 174 L 284 174 L 280 175 L 281 178 L 281 192 Q 278 193 283 195 L 362 195 L 363 194 L 363 143 L 362 141 L 360 142 L 349 142 L 348 141 Q 342 140 340 144 L 341 147 L 341 160 L 340 162 L 344 164 L 346 163 L 349 164 L 350 165 L 350 174 L 332 174 L 331 175 L 330 170 L 330 168 L 330 139 L 329 138 L 330 132 L 334 130 L 336 130 L 368 130 L 374 131 L 374 194 L 376 195 L 396 195 L 397 194 L 397 101 L 398 100 L 423 100 L 424 99 L 424 21 L 423 19 L 383 19 Z M 373 48 L 372 51 L 372 69 L 374 70 L 394 70 L 394 50 L 393 48 L 373 48 Z M 341 80 L 341 101 L 363 101 L 363 80 L 341 80 Z M 279 142 L 279 163 L 301 163 L 301 142 L 279 142 Z M 248 173 L 248 194 L 250 195 L 252 194 L 268 195 Q 272 193 269 192 L 269 173 L 248 173 Z M 219 252 L 212 260 L 213 263 L 212 266 L 212 268 L 213 271 L 212 274 L 212 276 L 213 280 L 220 285 L 241 289 L 242 288 L 242 280 L 240 280 L 241 279 L 241 258 L 236 252 L 219 252 Z M 256 252 L 254 254 L 254 277 L 255 281 L 261 285 L 275 285 L 277 284 L 282 278 L 282 255 L 281 252 L 272 252 L 272 275 Q 270 277 265 276 L 264 273 L 264 257 L 265 254 L 264 252 L 256 252 Z M 295 252 L 295 285 L 304 285 L 305 284 L 305 277 L 310 277 L 312 283 L 315 285 L 323 285 L 323 281 L 319 274 L 322 271 L 322 258 L 317 252 L 295 252 Z M 335 252 L 336 259 L 336 260 L 339 261 L 339 276 L 335 279 Q 334 284 337 285 L 352 285 L 353 284 L 353 277 L 349 277 L 349 260 L 353 259 L 353 252 L 335 252 Z M 368 252 L 366 254 L 367 259 L 366 261 L 366 284 L 368 285 L 376 285 L 377 284 L 376 276 L 380 275 L 384 276 L 389 275 L 389 269 L 388 268 L 388 266 L 377 266 L 376 264 L 378 261 Q 384 260 388 262 Q 392 261 390 254 L 389 252 L 368 252 Z M 403 252 L 401 254 L 407 275 L 411 276 L 411 284 L 413 285 Q 419 287 421 284 L 421 276 L 424 276 L 427 269 L 430 252 L 421 252 L 420 254 L 420 256 L 417 265 Q 418 267 415 266 L 412 254 L 411 252 L 403 252 Z M 107 307 L 105 309 L 105 317 L 107 318 L 110 318 L 110 323 L 114 323 Q 116 322 115 318 L 119 317 Q 121 314 120 308 L 115 308 L 115 314 L 111 314 Q 108 313 109 308 L 107 307 Z M 129 307 L 127 308 L 127 310 L 126 313 L 127 317 L 127 319 Q 125 324 130 323 L 131 322 L 131 311 L 131 309 L 129 307 Z M 553 307 L 550 308 L 550 323 L 554 323 L 555 320 L 554 309 L 553 307 Z M 619 307 L 616 310 L 616 322 L 620 323 Q 622 321 622 316 L 626 322 L 631 323 L 632 320 Q 634 314 631 313 Q 633 306 627 308 L 627 314 L 619 307 Z M 9 308 L 15 322 L 19 323 L 25 311 Q 26 306 22 308 L 17 315 L 15 310 Q 14 307 9 308 Z M 31 308 L 31 320 L 34 323 L 45 323 L 45 319 L 42 319 Q 45 317 44 313 L 36 313 L 45 312 L 45 308 L 31 308 Z M 53 308 L 51 310 L 52 323 L 56 323 Q 54 318 59 319 L 60 322 L 67 323 Q 68 320 65 319 L 67 315 L 66 310 L 66 308 L 53 308 Z M 75 308 L 73 310 L 74 322 L 76 323 L 78 322 L 78 309 L 75 308 Z M 87 308 L 85 310 L 85 323 Q 89 324 90 322 L 89 319 L 97 318 L 98 315 L 97 313 L 90 313 L 99 312 L 99 308 L 87 308 Z M 139 308 L 137 310 L 137 321 L 141 323 Q 143 321 143 316 L 151 323 L 153 322 L 153 309 L 150 308 Q 147 309 148 314 L 142 308 L 139 308 Z M 162 308 L 160 310 L 160 322 Q 164 324 174 323 Q 177 321 175 315 L 174 313 L 165 313 L 174 312 L 175 311 L 175 308 L 162 308 Z M 197 308 L 194 309 L 194 322 L 196 323 Q 199 324 198 321 Q 200 317 207 319 Q 211 318 209 311 L 207 308 L 197 308 Z M 216 308 L 215 311 L 216 313 L 215 315 L 216 317 L 216 323 L 219 323 Q 221 322 220 319 L 222 319 Q 224 318 223 321 Q 224 324 230 323 L 231 321 L 228 319 Q 227 316 230 317 L 231 309 L 229 308 L 216 308 Z M 239 308 L 237 310 L 237 319 L 237 321 Q 240 325 251 323 L 252 321 L 247 319 L 250 318 L 251 314 L 242 313 L 251 312 L 252 310 L 251 308 L 239 308 Z M 260 308 Q 257 309 258 316 L 261 317 Q 262 320 258 319 L 258 321 L 259 323 L 270 323 Q 273 322 272 316 Q 269 312 262 313 L 271 312 L 272 310 L 271 308 L 260 308 Z M 280 308 L 278 310 L 279 315 L 278 318 L 279 322 L 282 323 L 292 323 L 293 322 L 291 319 L 292 315 L 291 313 L 283 313 L 292 312 L 293 311 L 293 308 L 280 308 Z M 299 308 L 299 322 L 301 323 L 303 323 L 303 316 L 304 316 Q 303 318 306 317 L 308 321 L 314 323 L 314 309 L 310 308 L 310 315 L 307 312 Q 305 307 299 308 Z M 324 308 L 321 312 Q 319 320 324 323 L 334 323 L 335 322 L 334 318 L 332 319 L 330 318 L 326 319 L 326 312 L 333 312 L 333 308 L 324 308 Z M 342 308 L 342 321 L 345 323 L 355 323 L 356 322 Q 357 318 354 319 L 355 315 L 354 313 L 346 313 L 356 312 L 356 308 L 342 308 Z M 374 308 L 376 322 L 380 323 L 384 317 L 385 320 Q 386 324 391 323 L 393 316 L 393 308 Q 387 306 389 312 Q 388 315 386 312 Q 387 309 383 310 L 380 314 L 379 310 Q 378 307 374 308 Z M 400 308 L 400 322 L 404 323 L 404 309 L 400 308 Z M 412 308 L 410 311 Q 411 313 415 312 L 415 322 L 417 323 L 420 322 L 420 312 L 425 312 L 425 308 L 412 308 Z M 431 308 L 431 322 L 433 323 L 436 322 L 436 318 L 442 318 Q 441 322 444 323 L 447 322 L 446 320 Q 444 313 447 312 L 446 308 L 442 308 L 442 313 L 436 313 Q 439 306 431 308 Z M 469 308 L 466 309 Q 464 312 465 320 L 467 323 Q 472 325 470 319 L 473 320 L 479 319 Q 483 318 481 311 L 479 308 L 469 308 Z M 489 308 L 487 310 L 487 321 L 488 322 Q 487 324 491 323 L 493 318 Q 495 323 502 323 L 503 322 L 500 319 Q 499 316 502 317 L 503 311 L 501 308 L 489 308 Z M 511 308 L 509 310 Q 507 320 512 323 L 522 323 L 524 321 L 522 319 L 520 319 Q 517 320 518 318 L 521 317 Q 523 318 522 315 L 521 313 L 514 313 L 523 312 L 524 310 L 523 308 L 511 308 Z M 532 308 L 530 310 L 530 322 L 532 323 L 543 323 L 544 319 L 534 318 L 534 312 L 540 312 L 540 308 L 532 308 Z M 564 308 L 561 311 L 562 317 L 564 318 L 561 319 L 562 323 L 574 323 Q 577 321 576 316 L 574 313 L 566 313 L 575 312 L 575 308 L 564 308 Z M 582 308 L 582 322 L 584 323 L 587 322 L 587 308 L 582 308 Z M 597 308 L 593 312 L 593 319 L 595 322 L 598 323 Q 604 324 608 322 L 610 319 L 609 311 L 607 308 L 597 308 Z " /><path fill="rgb(0,0,0)" stroke="rgb(0,0,0)" stroke-width="1" opacity="0" d="M 305 260 L 312 260 L 312 268 L 305 268 L 305 260 Z " /><path fill="rgb(0,0,0)" stroke="rgb(0,0,0)" stroke-width="1" opacity="0" d="M 223 261 L 231 261 L 231 278 Q 225.7 278.7 223 275.5 L 223 261 Z " /><path fill="rgb(0,0,0)" stroke="rgb(0,0,0)" stroke-width="1" opacity="0" d="M 56 312 L 62 312 L 62 314 L 56 314 L 56 312 Z " /><path fill="rgb(0,0,0)" stroke="rgb(0,0,0)" stroke-width="1" opacity="0" d="M 199.5 312 Q 204 311 205 313.5 Q 203.4 316.5 198 315 L 199.5 312 Z " /><path fill="rgb(0,0,0)" stroke="rgb(0,0,0)" stroke-width="1" opacity="0" d="M 220 312 L 226 312.5 Q 224.6 315.3 220 314 L 220 312 Z " /><path fill="rgb(0,0,0)" stroke="rgb(0,0,0)" stroke-width="1" opacity="0" d="M 471.5 312 Q 477.8 310.1 476 315 L 470.5 315 L 470 313.5 L 471.5 312 Z " /><path fill="rgb(0,0,0)" stroke="rgb(0,0,0)" stroke-width="1" opacity="0" d="M 492 312 L 498 312 L 498 314 L 492 314 L 492 312 Z " /><path fill="rgb(0,0,0)" stroke="rgb(0,0,0)" stroke-width="1" opacity="0" d="M 599.5 312 L 605 312 L 605 318 Q 599.6 319.5 598 316.5 Q 597.3 312.8 599.5 312 Z " /><path fill="rgb(0,0,0)" stroke="rgb(0,0,0)" stroke-width="1" opacity="0" d="M 165.5 318 L 170 318.5 L 165.5 319 L 165.5 318 Z " /><path fill="rgb(0,0,0)" stroke="rgb(0,0,0)" stroke-width="1" opacity="0" d="M 262.5 318 L 265 318.5 L 262.5 319 L 262.5 318 Z " /><path fill="rgb(0,0,0)" stroke="rgb(0,0,0)" stroke-width="1" opacity="0" d="M 285.5 318 L 290 318.5 L 285.5 319 L 285.5 318 Z " /><path fill="rgb(82,113,252)" stroke="rgb(82,113,252)" stroke-width="1" opacity="0.996078431372549" d="M 385 21 L 420.5 21 L 421 22.5 L 422 26.5 L 421 27.5 L 421 90.5 L 422 95.5 L 420.5 97 L 396.5 97 L 395 98.5 L 395 191.5 L 393.5 193 L 377.5 193 L 376 191.5 L 376 129.5 L 374.5 128 L 329.5 128 L 328 129.5 L 328 175.5 L 329.5 176 L 330.5 177 L 349.5 177 L 352 176 L 353 169.5 L 352 168.5 L 352 162 L 343 161 L 343 144.5 L 344.5 143 L 359.5 143 L 360 144.5 L 361 145.5 L 361 175.5 L 361 177.5 L 361 191.5 L 359.5 193 L 284.5 193 L 283 191.5 L 283 177 L 311.5 177 L 314 176 L 314 129.5 L 312.5 128 L 267.5 128 L 266 129.5 L 265.5 160 L 261.5 159 L 258.5 160 L 253.5 159 L 250.5 160 L 238.5 159 L 235 160 L 234 166.5 L 234 168.5 L 234 199.5 L 235 200.5 L 234 205.5 L 237.5 208 L 239.5 207 L 241.5 208 L 245.5 207 L 248.5 208 L 257 208 L 257 222 L 221 222 L 221 146 L 244.5 146 L 247 143.5 L 247 50.5 L 249.5 50 Q 250.8 52.3 255.5 51 L 257.5 51 L 261.5 50 L 263.5 51 Q 264.8 48.8 266 51.5 L 266 113.5 L 267.5 115 L 312.5 115 L 314 113.5 L 314 67.5 L 312.5 66 L 291.5 66 L 289 68.5 L 290 75.5 L 289 77.5 L 290.5 81 Q 297.2 79.3 299 82.5 L 299 97.5 L 297.5 99 L 288.5 100 L 287.5 99 L 281 99 L 281 51.5 L 282.5 50 L 284.5 51 L 350.5 51 L 352.5 51 Q 357.3 52.3 358.5 50 L 359 66 L 329.5 66 L 328 67.5 L 328 115 L 374.5 115 L 376 113.5 L 376 84.5 L 377.5 83 L 402.5 83 L 403.5 84 L 408 81.5 L 407 78.5 L 407 40.5 L 408 38.5 L 407 35 L 385 35 L 385 21 Z " /><path fill="rgb(82,113,252)" stroke="rgb(82,113,252)" stroke-width="1" opacity="0.996078431372549" d="M 219.5 254 L 234.5 254 L 235 255.5 L 238 257 L 239 259.5 L 239 276.5 L 236 278 Q 234.5 281.8 237.5 281 L 240 282 L 240 287 L 238.5 287 L 224.5 283 L 219 283 L 219 281 Q 216.3 282.1 217 279.5 L 215 277.5 L 215 259.5 L 216 257 Q 218.7 258.1 218 255.5 L 219.5 254 Z M 224 258 L 221 259 L 220 262 L 221 263 L 221 278 L 223 279 L 232 280 L 233 279 L 233 261 Q 231 256 224 258 Z " /><path fill="rgb(82,113,252)" stroke="rgb(82,113,252)" stroke-width="1" opacity="0.996078431372549" d="M 257 254 L 262 254.5 L 262 276.5 L 263.5 278 L 273 278 L 273 254.5 L 273.5 254 L 279 254 L 279 277.5 L 277 281 Q 273.3 284.8 262.5 283 L 257 278.5 L 257 254 Z " /><path fill="rgb(82,113,252)" stroke="rgb(82,113,252)" stroke-width="1" opacity="0.996078431372549" d="M 297 254 L 315.5 254 L 319 257.5 Q 321.5 261 320 268.5 L 317 273.5 L 320 279.5 L 320 283 Q 315.4 284.3 314 281.5 L 310.5 274 L 303 274 L 303 281.5 Q 302.3 283.8 298.5 283 L 297 281.5 L 297 254 Z M 305 258 L 303 260 L 303 269 L 305 270 L 313 270 L 314 269 L 314 258 L 305 258 Z " /><path fill="rgb(82,113,252)" stroke="rgb(82,113,252)" stroke-width="1" opacity="0.996078431372549" d="M 338 254 L 349.5 254 L 351 255.5 L 350 258 L 347 259.5 L 347 277.5 L 348.5 279 L 350 279 L 350 283 L 338 283 L 338 279 L 341 277.5 L 341 258.5 L 339.5 258 L 338 254 Z " /><path fill="rgb(82,113,252)" stroke="rgb(82,113,252)" stroke-width="1" opacity="0.996078431372549" d="M 369.5 254 L 387.5 254 L 388 257.5 L 386.5 259 L 375.5 259 L 374 260.5 L 373 262.5 L 375.5 268 Q 383.2 267.2 387 269 L 385.5 273 L 375.5 273 L 374 274.5 L 374 283 L 369 283 L 368 277.5 L 369 274.5 L 368 273.5 L 368 260.5 L 368 258.5 Q 367.3 254.8 369.5 254 Z " /><path fill="rgb(82,113,252)" stroke="rgb(82,113,252)" stroke-width="1" opacity="0.996078431372549" d="M 404 254 L 410 254 L 410 258.5 L 414.5 269 Q 418.3 269.8 419 267.5 L 422 254 L 427.5 254 L 428 255.5 L 423 273 L 419 274 L 419 281.5 L 417.5 283 Q 413.8 283.8 413 281.5 L 414 277.5 L 411.5 273 Q 408.2 274.1 409 271.5 L 404 254 Z " /><path fill="rgb(85,112,236)" stroke="rgb(85,112,236)" stroke-width="1" opacity="0.9098039215686274" d="M 385.5 20 L 421.5 20 L 422 22.5 L 421 22.5 L 420.5 21 L 385 21 L 385 35 L 406.5 35 L 406.5 36 L 385.5 36 L 384 34.5 L 384 21.5 L 385.5 20 Z " /><path fill="rgb(85,112,236)" stroke="rgb(85,112,236)" stroke-width="1" opacity="0.9098039215686274" d="M 421.5 27 L 422 90.5 L 421 90.5 L 421.5 27 Z " /><path fill="rgb(85,112,236)" stroke="rgb(85,112,236)" stroke-width="1" opacity="0.9098039215686274" d="M 247.5 49 L 247 50.5 L 247 143.5 L 244.5 146 L 221.5 146 L 221 146.5 L 221 222 L 257 222 L 257 208 L 248 207.5 L 258 207 L 258 221.5 L 256.5 223 L 220 223 L 220 145 L 244.5 145 L 246 143.5 L 246 50.5 L 247.5 49 Z " /><path fill="rgb(85,112,236)" stroke="rgb(85,112,236)" stroke-width="1" opacity="0.9098039215686274" d="M 249.5 49 L 254.5 50 L 257.5 49 L 258.5 51 L 256.5 50 Q 255.3 52.3 250.5 51 L 249.5 49 Z " /><path fill="rgb(85,112,236)" stroke="rgb(85,112,236)" stroke-width="1" opacity="0.9098039215686274" d="M 282.5 49 L 287.5 50 L 289.5 50 L 322.5 49 L 323.5 50 L 335.5 50 L 337.5 50 L 351 50.5 L 284.5 51 L 282.5 50 L 281 51.5 L 281 99 L 288 99.5 L 281.5 100 L 280 98.5 L 280 51.5 L 282.5 49 Z " /><path fill="rgb(85,112,236)" stroke="rgb(85,112,236)" stroke-width="1" opacity="0.9098039215686274" d="M 352.5 49 L 357.5 50 Q 358.8 47.8 360 50.5 L 360 67 L 329.5 67 L 328 67.5 L 329.5 66 L 359 66 L 358.5 50 L 352 51 L 352.5 49 Z " /><path fill="rgb(85,112,236)" stroke="rgb(85,112,236)" stroke-width="1" opacity="0.9098039215686274" d="M 265.5 50 L 267 50.5 L 267 114 L 313 114 L 313 67 L 291.5 67 Q 288.6 68.6 289.5 74 L 289 68.5 L 291.5 66 L 312.5 66 L 314 67.5 L 314 113.5 L 312.5 115 L 267.5 115 L 266 113.5 L 266 51.5 L 265.5 50 Z " /><path fill="rgb(85,112,236)" stroke="rgb(85,112,236)" stroke-width="1" opacity="0.9098039215686274" d="M 289.5 79 L 290.5 81 L 289.5 79 Z " /><path fill="rgb(85,112,236)" stroke="rgb(85,112,236)" stroke-width="1" opacity="0.9098039215686274" d="M 407.5 79 L 408 81.5 L 406 82.5 L 407.5 79 Z " /><path fill="rgb(85,112,236)" stroke="rgb(85,112,236)" stroke-width="1" opacity="0.9098039215686274" d="M 298.5 81 L 300 82.5 L 300 98.5 L 298.5 100 L 290.5 100 L 290.5 99 Q 297.2 100.8 299 97.5 L 299 82.5 L 298.5 81 Z " /><path fill="rgb(85,112,236)" stroke="rgb(85,112,236)" stroke-width="1" opacity="0.9098039215686274" d="M 376.5 83 L 376 84.5 L 376 113.5 L 374.5 115 L 328.5 115 L 328 113.5 L 329.5 114 L 375 114 L 375 84.5 L 376.5 83 Z " /><path fill="rgb(85,112,236)" stroke="rgb(85,112,236)" stroke-width="1" opacity="0.9098039215686274" d="M 421.5 96 L 422 98 L 396.5 98 L 396 98.5 L 396 191.5 L 394 192.5 L 395 191.5 L 395 98.5 L 396.5 97 L 420.5 97 L 421.5 96 Z " /><path fill="rgb(85,112,236)" stroke="rgb(85,112,236)" stroke-width="1" opacity="0.9098039215686274" d="M 267.5 128 L 312.5 128 L 314 129.5 L 313.5 176 L 313 129 L 267 129 L 267 158.5 L 266 158.5 L 266 129.5 L 267.5 128 Z " /><path fill="rgb(85,112,236)" stroke="rgb(85,112,236)" stroke-width="1" opacity="0.9098039215686274" d="M 329.5 128 L 374.5 128 L 376 129.5 L 376 191.5 L 377 192.5 L 375 193 L 375 129 L 329.5 129 L 328 129.5 L 329.5 128 Z " /><path fill="rgb(85,112,236)" stroke="rgb(85,112,236)" stroke-width="1" opacity="0.9098039215686274" d="M 342 143 L 344 143.5 L 343 144.5 L 343 161 L 349 161.5 L 342 162 L 342 143 Z " /><path fill="rgb(85,112,236)" stroke="rgb(85,112,236)" stroke-width="1" opacity="0.9098039215686274" d="M 238.5 159 L 242 159.5 L 238.5 160 L 238.5 159 Z " /><path fill="rgb(85,112,236)" stroke="rgb(85,112,236)" stroke-width="1" opacity="0.9098039215686274" d="M 253.5 159 L 256 159.5 L 253.5 160 L 253.5 159 Z " /><path fill="rgb(85,112,236)" stroke="rgb(85,112,236)" stroke-width="1" opacity="0.9098039215686274" d="M 261.5 159 L 265 159.5 L 261.5 160 L 261.5 159 Z " /><path fill="rgb(85,112,236)" stroke="rgb(85,112,236)" stroke-width="1" opacity="0.9098039215686274" d="M 234.5 162 L 235 166.5 L 234 166.5 L 234.5 162 Z " /><path fill="rgb(85,112,236)" stroke="rgb(85,112,236)" stroke-width="1" opacity="0.9098039215686274" d="M 351.5 162 L 353 169.5 L 351.5 176 L 351.5 162 Z " /><path fill="rgb(85,112,236)" stroke="rgb(85,112,236)" stroke-width="1" opacity="0.9098039215686274" d="M 234.5 168 L 235 199.5 L 234 199.5 L 234.5 168 Z " /><path fill="rgb(85,112,236)" stroke="rgb(85,112,236)" stroke-width="1" opacity="0.9098039215686274" d="M 282 176 L 312 176.5 L 283 177 L 283 191.5 L 284 192.5 L 282 193 L 282 176 Z " /><path fill="rgb(85,112,236)" stroke="rgb(85,112,236)" stroke-width="1" opacity="0.9098039215686274" d="M 330.5 176 L 350 176.5 L 330.5 177 L 330.5 176 Z " /><path fill="rgb(85,112,236)" stroke="rgb(85,112,236)" stroke-width="1" opacity="0.9098039215686274" d="M 234.5 201 Q 233.9 205.6 236.5 207 L 238 207.5 L 236.5 208 Q 232.5 206.5 234.5 201 Z " /><path fill="rgb(85,112,236)" stroke="rgb(85,112,236)" stroke-width="1" opacity="0.9098039215686274" d="M 219.5 253 L 234.5 253 L 239 257.5 L 240 259.5 L 240 276.5 Q 234.7 278.8 238.5 281 L 240 281.5 L 238.5 282 L 236 281 Q 234.5 277.3 237.5 278 L 239 276.5 L 239 259.5 L 238 257 L 235 255.5 L 234.5 254 L 219.5 254 L 218 257 Q 215.3 255.9 216 258.5 L 215 259.5 L 215 277.5 L 217 281 Q 219.7 279.9 219 282.5 L 214 278.5 L 214 258.5 L 219.5 253 Z " /><path fill="rgb(85,112,236)" stroke="rgb(85,112,236)" stroke-width="1" opacity="0.9098039215686274" d="M 256 253 L 262.5 253 L 263 253.5 L 263 277 L 271.5 277 L 273 276.5 L 272.5 278 L 263.5 278 L 262 276.5 L 262 254 L 257 254.5 L 257 278.5 L 262 282.5 L 260.5 283 L 256 278.5 L 256 253 Z " /><path fill="rgb(85,112,236)" stroke="rgb(85,112,236)" stroke-width="1" opacity="0.9098039215686274" d="M 273.5 253 Q 278.8 251.8 280 254.5 L 280 277.5 L 276.5 282 Q 273.3 285.8 264.5 284 L 264.5 283 L 273.5 283 L 277 281 L 279 277.5 L 279 254 L 273.5 254 L 273.5 253 Z " /><path fill="rgb(85,112,236)" stroke="rgb(85,112,236)" stroke-width="1" opacity="0.9098039215686274" d="M 297.5 253 L 315 253.5 L 297 254 L 297 281.5 L 298 282.5 L 296 283 L 296 254.5 L 297.5 253 Z " /><path fill="rgb(85,112,236)" stroke="rgb(85,112,236)" stroke-width="1" opacity="0.9098039215686274" d="M 337 253 L 350.5 253 L 352 254.5 L 350.5 255 L 349.5 254 L 338 254 L 339.5 258 Q 341.8 257.3 341 259.5 L 339.5 259 L 337 257.5 L 337 253 Z " /><path fill="rgb(85,112,236)" stroke="rgb(85,112,236)" stroke-width="1" opacity="0.9098039215686274" d="M 368 253 L 388 253.5 L 369.5 254 L 368.5 255 L 368 253 Z " /><path fill="rgb(85,112,236)" stroke="rgb(85,112,236)" stroke-width="1" opacity="0.9098039215686274" d="M 403 253 L 410 253.5 L 404 254 L 403.5 257 L 403 253 Z " /><path fill="rgb(85,112,236)" stroke="rgb(85,112,236)" stroke-width="1" opacity="0.9098039215686274" d="M 422.5 253 L 429 253 L 429 255.5 L 427.5 259 L 427 256.5 L 428 254 L 422 254 L 422 256.5 L 419.5 264 L 419 261.5 L 422.5 253 Z " /><path fill="rgb(85,112,236)" stroke="rgb(85,112,236)" stroke-width="1" opacity="0.9098039215686274" d="M 316.5 254 Q 323 257 321 268.5 L 317.5 274 L 317 272.5 Q 321.9 269.4 320 259.5 L 316.5 254 Z " /><path fill="rgb(85,112,236)" stroke="rgb(85,112,236)" stroke-width="1" opacity="0.9098039215686274" d="M 410.5 255 L 412 260.5 L 411 260.5 L 410.5 255 Z " /><path fill="rgb(85,112,236)" stroke="rgb(85,112,236)" stroke-width="1" opacity="0.9098039215686274" d="M 350.5 256 L 351 257.5 L 348 259 L 348 277.5 L 351 278 L 351 284 L 346 283.5 L 350 283 L 350 279 L 348.5 279 L 347 277.5 L 347 259.5 L 350 258 L 350.5 256 Z " /><path fill="rgb(85,112,236)" stroke="rgb(85,112,236)" stroke-width="1" opacity="0.9098039215686274" d="M 223.5 258 Q 231.2 256.3 233 260.5 L 233 278.5 L 231.5 280 L 228 279.5 L 232 279 L 232 260.5 L 230.5 259 Q 223.8 257.3 222 260.5 L 222 277.5 L 225.5 278 L 225.5 279 Q 221.8 279.8 221 277.5 L 221 262.5 L 220 261.5 L 221 259 L 223.5 258 Z " /><path fill="rgb(85,112,236)" stroke="rgb(85,112,236)" stroke-width="1" opacity="0.9098039215686274" d="M 304.5 258 L 313.5 258 L 314 260.5 L 313 260.5 L 312.5 259 L 304.5 259 L 303 259.5 L 304.5 258 Z " /><path fill="rgb(85,112,236)" stroke="rgb(85,112,236)" stroke-width="1" opacity="0.9098039215686274" d="M 387.5 258 L 386.5 260 L 375 260 L 375 266.5 L 375.5 268 L 373 262.5 L 375.5 259 L 386.5 259 L 387.5 258 Z " /><path fill="rgb(85,112,236)" stroke="rgb(85,112,236)" stroke-width="1" opacity="0.9098039215686274" d="M 313.5 262 L 314 268.5 L 312.5 270 L 304.5 270 L 303.5 268 L 304.5 269 L 313 269 L 313.5 262 Z " /><path fill="rgb(85,112,236)" stroke="rgb(85,112,236)" stroke-width="1" opacity="0.9098039215686274" d="M 412.5 262 L 413 264.5 L 412 264.5 L 412.5 262 Z " /><path fill="rgb(85,112,236)" stroke="rgb(85,112,236)" stroke-width="1" opacity="0.9098039215686274" d="M 425.5 263 L 426 265.5 L 425 265.5 L 425.5 263 Z " /><path fill="rgb(85,112,236)" stroke="rgb(85,112,236)" stroke-width="1" opacity="0.9098039215686274" d="M 406.5 264 L 408 269.5 L 407 269.5 L 406.5 264 Z " /><path fill="rgb(85,112,236)" stroke="rgb(85,112,236)" stroke-width="1" opacity="0.9098039215686274" d="M 418.5 265 L 419 267.5 Q 418.3 269.8 414.5 269 L 413 266.5 L 414 266.5 L 414 268 L 418 268 L 418.5 265 Z " /><path fill="rgb(85,112,236)" stroke="rgb(85,112,236)" stroke-width="1" opacity="0.9098039215686274" d="M 424.5 267 L 425 269.5 L 424 269.5 L 424.5 267 Z " /><path fill="rgb(85,112,236)" stroke="rgb(85,112,236)" stroke-width="1" opacity="0.9098039215686274" d="M 384.5 268 L 388 269.5 Q 388.8 273.3 386.5 274 L 375 274 L 375 282.5 Q 374 285 369.5 284 Q 367 283 368 278.5 L 369 278.5 L 369 283 L 374 283 L 374 274.5 L 375.5 273 L 385.5 273 L 387 271.5 Q 388.3 267.8 384.5 269 L 384.5 268 Z " /><path fill="rgb(85,112,236)" stroke="rgb(85,112,236)" stroke-width="1" opacity="0.9098039215686274" d="M 408.5 271 L 409 273 L 413 274.5 L 414 277.5 L 413 281.5 Q 413.8 283.8 417.5 283 L 419 282.5 Q 418.3 284.8 414.5 284 L 412 281.5 Q 413.5 275.5 410.5 274 Q 406.1 275.1 408.5 271 Z " /><path fill="rgb(85,112,236)" stroke="rgb(85,112,236)" stroke-width="1" opacity="0.9098039215686274" d="M 423.5 271 L 424 272.5 L 421.5 274 L 421.5 273 Q 424 273.7 423.5 271 Z " /><path fill="rgb(85,112,236)" stroke="rgb(85,112,236)" stroke-width="1" opacity="0.9098039215686274" d="M 303 274 L 310.5 274 L 312 275.5 L 313 278.5 L 312 278.5 L 311 275 L 304.5 275 L 303.5 276 L 303 274 Z " /><path fill="rgb(85,112,236)" stroke="rgb(85,112,236)" stroke-width="1" opacity="0.9098039215686274" d="M 368.5 274 L 369 276.5 L 368 276.5 L 368.5 274 Z " /><path fill="rgb(85,112,236)" stroke="rgb(85,112,236)" stroke-width="1" opacity="0.9098039215686274" d="M 318.5 276 L 322 282.5 L 318.5 284 L 318.5 283 Q 321.5 283.9 320 279.5 L 318.5 276 Z " /><path fill="rgb(85,112,236)" stroke="rgb(85,112,236)" stroke-width="1" opacity="0.9098039215686274" d="M 340.5 277 L 339.5 279 Q 336.5 278.1 338 282.5 L 337 282.5 Q 334.9 276.6 339.5 278 L 340.5 277 Z " /><path fill="rgb(85,112,236)" stroke="rgb(85,112,236)" stroke-width="1" opacity="0.9098039215686274" d="M 313.5 280 L 315 282.5 L 313 281.5 L 313.5 280 Z " /><path fill="rgb(85,112,236)" stroke="rgb(85,112,236)" stroke-width="1" opacity="0.9098039215686274" d="M 302.5 282 L 301.5 284 L 300 283.5 L 302.5 282 Z " /><path fill="rgb(85,112,236)" stroke="rgb(85,112,236)" stroke-width="1" opacity="0.9098039215686274" d="M 220.5 283 L 228 284.5 L 225.5 285 L 220.5 284 L 220.5 283 Z " /><path fill="rgb(85,112,236)" stroke="rgb(85,112,236)" stroke-width="1" opacity="0.9098039215686274" d="M 339.5 283 L 342 283.5 L 339.5 284 L 339.5 283 Z " /><path fill="rgb(85,112,236)" stroke="rgb(85,112,236)" stroke-width="1" opacity="0.9098039215686274" d="M 229.5 285 L 233 285.5 L 229.5 286 L 229.5 285 Z " /><path fill="rgb(85,112,236)" stroke="rgb(85,112,236)" stroke-width="1" opacity="0.9098039215686274" d="M 235.5 286 L 238 286.5 L 235.5 287 L 235.5 286 Z " /><path fill="rgb(109,146,157)" stroke="rgb(109,146,157)" stroke-width="1" opacity="0.6549019607843137" d="M 373 49 L 392.5 49 L 394 50.5 L 393 54.5 L 393 56.5 L 393 69 L 388.5 69 L 386.5 70 L 384.5 70 L 373 69 L 373 49 Z " /><path fill="rgb(109,146,157)" stroke="rgb(109,146,157)" stroke-width="1" opacity="0.6549019607843137" d="M 342 81 L 362 81 L 362 101 L 342 101 L 342 81 Z " /><path fill="rgb(109,146,157)" stroke="rgb(109,146,157)" stroke-width="1" opacity="0.6549019607843137" d="M 280 142 L 300 142 L 300 162 L 280 162 L 280 142 Z " /><path fill="rgb(109,146,157)" stroke="rgb(109,146,157)" stroke-width="1" opacity="0.6549019607843137" d="M 253.5 173 L 256.5 174 Q 257.8 171.7 262.5 173 L 264.5 174 L 266.5 174 L 268 174.5 L 268 190.5 L 269 192.5 L 267.5 194 L 249.5 194 Q 246.8 192.8 249 191.5 L 249 174.5 L 252.5 174 L 253.5 173 Z " /><path fill="rgb(109,146,157)" stroke="rgb(109,146,157)" stroke-width="1" opacity="0.6549019607843137" d="M 128.5 307 L 130 308.5 L 130 322 L 127 321.5 L 127 308.5 L 128.5 307 Z " /><path fill="rgb(109,146,157)" stroke="rgb(109,146,157)" stroke-width="1" opacity="0.6549019607843137" d="M 10 308 L 14 309.5 L 16 316 L 19 314.5 L 21 308 L 25 308 L 25 309.5 L 18.5 322 L 15 320.5 L 10 308 Z " /><path fill="rgb(109,146,157)" stroke="rgb(109,146,157)" stroke-width="1" opacity="0.6549019607843137" d="M 32 308 L 44.5 308 L 45 311 L 41.5 312 L 39.5 311 L 36 312.5 L 40.5 314 L 42.5 313 L 44 315.5 L 42.5 317 L 35 317 L 35.5 319 L 45 319 L 45 322 L 34.5 322 L 32 319.5 L 32 308 Z " /><path fill="rgb(109,146,157)" stroke="rgb(109,146,157)" stroke-width="1" opacity="0.6549019607843137" d="M 53.5 308 Q 59 306.5 60.5 309 L 64.5 308 Q 67.5 309.5 66 315.5 L 63.5 319 L 66 320.5 Q 66.9 323.5 62.5 322 L 56.5 318 L 55 320.5 L 55.5 322 L 52 321.5 L 53 319.5 L 52 318.5 L 52 309.5 L 53.5 308 Z M 60 311 L 59 312 Q 54 311 55 314 L 63 314 L 63 313 L 60 311 Z " /><path fill="rgb(109,146,157)" stroke="rgb(109,146,157)" stroke-width="1" opacity="0.6549019607843137" d="M 75.5 308 L 77 308.5 L 77 322 L 74 320.5 Q 76.3 319.3 75 314.5 L 74 312.5 L 74 310.5 L 75.5 308 Z " /><path fill="rgb(109,146,157)" stroke="rgb(109,146,157)" stroke-width="1" opacity="0.6549019607843137" d="M 86 308 L 97.5 308 L 98 310.5 L 96.5 312 L 89 312.5 L 95.5 313 L 97 314.5 L 96.5 317 L 89.5 317 Q 86.8 318.3 89 319.5 Q 90.1 323.7 86 322 L 86 311.5 L 85 310.5 L 86 308 Z " /><path fill="rgb(109,146,157)" stroke="rgb(109,146,157)" stroke-width="1" opacity="0.6549019607843137" d="M 106.5 308 Q 109.9 307.1 108 312.5 L 109.5 314 L 116 314 L 116 308 L 119 308 Q 120.8 316 115.5 318 L 114 318 L 114 322 L 111 322 Q 113.1 316.8 108.5 318 L 106 317 L 106 310.5 L 105 309.5 L 106.5 308 Z " /><path fill="rgb(109,146,157)" stroke="rgb(109,146,157)" stroke-width="1" opacity="0.6549019607843137" d="M 139.5 308 L 143 310.5 Q 142.3 312.8 144.5 312 L 147 316 Q 150.5 317.1 149 309.5 L 152 308 L 152 321.5 L 150.5 322 L 145 317.5 Q 145.8 315.3 143.5 316 L 141 315 L 141 321.5 L 139.5 322 L 138 320.5 L 138 309.5 L 139.5 308 Z " /><path fill="rgb(109,146,157)" stroke="rgb(109,146,157)" stroke-width="1" opacity="0.6549019607843137" d="M 162.5 308 L 166.5 309 L 167.5 308 L 174 308 L 172.5 312 L 166.5 311 L 164 312 L 164.5 315 Q 165.5 312 170.5 313 L 174 314.5 L 174 322 L 162.5 322 L 161 320.5 L 161 309.5 L 162.5 308 Z M 164 317 L 165 319 L 171 319 L 171 317 L 164 317 Z " /><path fill="rgb(109,146,157)" stroke="rgb(109,146,157)" stroke-width="1" opacity="0.6549019607843137" d="M 196 308 L 205.5 308 L 208 310.5 Q 209.5 317.5 205.5 319 Q 198.8 317.3 197 320.5 Q 197.7 323.1 195 322 L 195 310.5 L 196 308 Z M 200 311 L 197 313 L 198 316 L 205 316 L 205 312 L 200 311 Z " /><path fill="rgb(109,146,157)" stroke="rgb(109,146,157)" stroke-width="1" opacity="0.6549019607843137" d="M 217 308 L 227.5 308 L 230 309 Q 231.3 316 227 318.5 L 229.5 322 L 226.5 322 Q 224.3 318 219 318 Q 220.7 323.2 217 322 L 216 313.5 L 216 311.5 L 217 308 Z M 224 311 L 223 312 Q 218 311 219 314 L 227 314 L 227 312 L 224 311 Z " /><path fill="rgb(109,146,157)" stroke="rgb(109,146,157)" stroke-width="1" opacity="0.6549019607843137" d="M 238 308 L 250.5 308 L 251 310.5 Q 249.8 313.3 248.5 311 L 243.5 312 L 241 311 L 242.5 314 L 246.5 313 L 250 314 L 250 317 L 241.5 317 L 241 319 L 250.5 319 L 251 322 L 240.5 322 L 238 319.5 L 238 308 Z " /><path fill="rgb(109,146,157)" stroke="rgb(109,146,157)" stroke-width="1" opacity="0.6549019607843137" d="M 261.5 308 L 269.5 308 L 271 309.5 Q 271.8 311.8 269.5 311 L 267.5 311 Q 262.8 310.3 261 312.5 Q 269.1 311.9 272 316.5 L 269.5 322 L 258.5 322 L 258 319 L 269 318.5 Q 267.5 315.5 261.5 317 L 258 314.5 Q 257 310 259.5 309 L 261.5 308 Z " /><path fill="rgb(109,146,157)" stroke="rgb(109,146,157)" stroke-width="1" opacity="0.6549019607843137" d="M 280.5 308 L 291.5 308 L 293 309.5 L 291.5 311 L 283 311 Q 281.7 314.3 286.5 313 L 288.5 314 Q 289.8 311.8 291 314.5 L 291 317 L 283.5 317 L 283 319 L 292 319 L 292 322 L 281.5 322 L 280 320.5 Q 277.5 317 279 309.5 L 280.5 308 Z " /><path fill="rgb(109,146,157)" stroke="rgb(109,146,157)" stroke-width="1" opacity="0.6549019607843137" d="M 300 308 Q 303.8 306.5 303 309.5 L 308.5 315 L 311 315 L 310 309.5 L 312.5 308 Q 315.3 309.3 313 310.5 L 313 321.5 L 311.5 322 L 303 315 L 303 322 L 300 322 L 300 308 Z " /><path fill="rgb(109,146,157)" stroke="rgb(109,146,157)" stroke-width="1" opacity="0.6549019607843137" d="M 323 308 L 331.5 308 L 333 309.5 L 325 312.5 L 325 319 L 334 319 L 334 322 L 323.5 322 L 323 320.5 L 322 319.5 L 322 310.5 L 323 308 Z " /><path fill="rgb(109,146,157)" stroke="rgb(109,146,157)" stroke-width="1" opacity="0.6549019607843137" d="M 343 308 L 354.5 308 L 355 310.5 Q 353.8 313.3 352.5 311 Q 346.5 309.5 345 312.5 Q 346.3 315.3 347.5 313 Q 352.8 311.8 354 314.5 L 354 317 L 346.5 317 L 346 319 L 355 319 L 355 322 L 344.5 322 L 343 320.5 L 343 308 Z " /><path fill="rgb(109,146,157)" stroke="rgb(109,146,157)" stroke-width="1" opacity="0.6549019607843137" d="M 375.5 308 Q 379.3 306.8 378 310.5 L 379 313.5 L 378.5 315 L 384.5 311 L 389 314 Q 387.8 309.4 390.5 308 Q 394.7 306.7 393 311.5 Q 390.4 314.4 391 320.5 L 389.5 322 L 387 320.5 L 385 316 Q 382.3 314.9 383 317.5 L 380 322 Q 375.9 323.7 377 319.5 L 374 309.5 L 375.5 308 Z " /><path fill="rgb(109,146,157)" stroke="rgb(109,146,157)" stroke-width="1" opacity="0.6549019607843137" d="M 401.5 308 L 404 308.5 L 404 322 L 400 321.5 L 400 309.5 L 401.5 308 Z " /><path fill="rgb(109,146,157)" stroke="rgb(109,146,157)" stroke-width="1" opacity="0.6549019607843137" d="M 412.5 308 L 423.5 308 L 425 309.5 Q 423.6 312.3 419 311 L 419 321.5 L 416 322 L 416 311 L 411 311 L 411 309.5 L 412.5 308 Z " /><path fill="rgb(109,146,157)" stroke="rgb(109,146,157)" stroke-width="1" opacity="0.6549019607843137" d="M 432 308 Q 436.9 306.2 435 312.5 L 438.5 314 L 440.5 314 L 443 314 L 443 308.5 L 444.5 308 L 446 311.5 L 445 315.5 L 446 317.5 L 445 322 L 443 322 L 443 317 L 435 317 L 435 322 L 432 322 L 432 308 Z " /><path fill="rgb(109,146,157)" stroke="rgb(109,146,157)" stroke-width="1" opacity="0.6549019607843137" d="M 469.5 308 Q 478 306 480 310.5 Q 481.5 317.5 477.5 319 Q 472 320.5 470.5 318 L 468.5 322 Q 465.2 323.1 466 320.5 L 467 316.5 L 466 311.5 L 467 309 L 469.5 308 Z M 472 311 L 469 312 L 470 316 L 477 316 L 477 312 L 472 311 Z " /><path fill="rgb(109,146,157)" stroke="rgb(109,146,157)" stroke-width="1" opacity="0.6549019607843137" d="M 489.5 308 L 499.5 308 L 502 310.5 L 499.5 318 L 498 317.5 L 498 319 L 500 319 Q 498.9 321.7 501.5 321 L 501.5 322 L 498.5 322 L 493.5 318 L 491 318 L 491 322 L 489.5 322 L 488 320.5 L 488 309.5 L 489.5 308 Z M 493 311 L 491 314 L 499 314 L 499 313 Q 498 310 493 311 Z " /><path fill="rgb(109,146,157)" stroke="rgb(109,146,157)" stroke-width="1" opacity="0.6549019607843137" d="M 510 308 L 522.5 308 L 523 311 L 520.5 312 L 514 311 Q 512.6 315 519.5 313 L 521 317 L 516 317.5 L 523 320.5 L 521.5 322 L 511.5 322 L 510 320.5 Q 511.2 315.8 509 314.5 L 510 311.5 L 510 309.5 L 510 308 Z M 515 317 Q 513 320 516 319 L 515 317 Z " /><path fill="rgb(109,146,157)" stroke="rgb(109,146,157)" stroke-width="1" opacity="0.6549019607843137" d="M 532.5 308 L 540 308 L 540 311 Q 534.6 309.5 533 312.5 Q 531.8 317.8 534.5 319 L 536.5 318 L 543 319 Q 544.7 323.1 540.5 322 L 536.5 323 L 530 320.5 L 530 310.5 L 532.5 308 Z " /><path fill="rgb(109,146,157)" stroke="rgb(109,146,157)" stroke-width="1" opacity="0.6549019607843137" d="M 551.5 308 L 554 308.5 L 554 322 L 550 320.5 L 550 312.5 L 551 311.5 L 550 309.5 L 551.5 308 Z " /><path fill="rgb(109,146,157)" stroke="rgb(109,146,157)" stroke-width="1" opacity="0.6549019607843137" d="M 564.5 308 L 573.5 308 L 575 309.5 L 574 312 L 566.5 311 L 565 313.5 L 566.5 313 L 571.5 314 Q 573.3 311.2 575 315.5 Q 576.3 320.8 573.5 322 L 561.5 322 L 561 320.5 L 562.5 319 L 572 319 Q 573.3 316 569.5 317 L 567.5 318 L 561 313.5 Q 560.5 308.5 564.5 308 Z " /><path fill="rgb(109,146,157)" stroke="rgb(109,146,157)" stroke-width="1" opacity="0.6549019607843137" d="M 583 308 L 586 308.5 L 586 322 L 583 321.5 L 583 308 Z " /><path fill="rgb(109,146,157)" stroke="rgb(109,146,157)" stroke-width="1" opacity="0.6549019607843137" d="M 597.5 308 Q 606 306 608 310.5 L 609 317.5 L 605.5 322 L 596.5 322 L 596 320.5 Q 592.5 319 594 312.5 L 597.5 308 Z M 600 311 Q 596 312 597 318 L 601 319 L 603 319 L 605 318 Q 607 317 605 316 L 606 312 L 600 311 Z " /><path fill="rgb(109,146,157)" stroke="rgb(109,146,157)" stroke-width="1" opacity="0.6549019607843137" d="M 617 308 L 621 309.5 L 623.5 313 L 626.5 315 L 628 312.5 L 628 310.5 Q 627.2 307.5 631 309 L 631 321.5 L 628.5 322 L 626 321 L 620.5 314 L 620 316.5 L 620 318.5 L 621 320.5 L 617 322 L 617 308 Z " /><path fill="rgb(84,115,171)" stroke="rgb(84,115,171)" stroke-width="1" opacity="0.5450980392156862" d="M 384.5 19 L 421.5 19 L 424 20 L 423 25.5 L 423 93.5 L 424 96.5 L 423 99 L 397.5 99 L 396.5 100 L 396 98 L 422 98 L 422 20 L 384 20 L 384 34.5 L 384.5 36 L 383 35.5 L 383 20.5 L 384.5 19 Z " /><path fill="rgb(84,115,171)" stroke="rgb(84,115,171)" stroke-width="1" opacity="0.5450980392156862" d="M 405.5 36 L 407 36.5 L 407 81.5 L 405.5 83 L 375 83 L 375 114 L 329.5 114 L 328 112.5 L 328 68.5 L 329.5 67 L 358.5 67 L 358.5 68 L 329.5 68 L 329 69.5 L 329 71.5 L 330 78.5 L 329 79.5 L 329 107.5 L 329 109.5 L 329.5 113 L 374 113 L 374 83.5 L 376.5 81 L 402.5 81 L 404.5 82 L 406 80.5 L 406 37.5 L 405.5 36 Z " /><path fill="rgb(84,115,171)" stroke="rgb(84,115,171)" stroke-width="1" opacity="0.5450980392156862" d="M 246 48 L 249 49.5 L 246 50.5 L 245.5 52 L 245 50.5 L 246 48 Z " /><path fill="rgb(84,115,171)" stroke="rgb(84,115,171)" stroke-width="1" opacity="0.5450980392156862" d="M 358.5 48 L 361 50.5 L 361 63.5 L 360 63.5 L 360 50.5 L 358.5 49 L 353.5 50 L 353.5 49 L 358.5 48 Z " /><path fill="rgb(84,115,171)" stroke="rgb(84,115,171)" stroke-width="1" opacity="0.5450980392156862" d="M 251.5 49 L 255 49.5 L 251.5 50 L 251.5 49 Z " /><path fill="rgb(84,115,171)" stroke="rgb(84,115,171)" stroke-width="1" opacity="0.5450980392156862" d="M 258.5 49 L 266.5 49 L 268 50.5 L 268 113 L 312 113 L 312.5 93 L 313 114 L 267 114 L 267 50.5 L 266.5 50 L 258.5 50 L 258.5 49 Z " /><path fill="rgb(84,115,171)" stroke="rgb(84,115,171)" stroke-width="1" opacity="0.5450980392156862" d="M 280 49 L 282 49.5 L 280 50.5 L 280 49 Z " /><path fill="rgb(84,115,171)" stroke="rgb(84,115,171)" stroke-width="1" opacity="0.5450980392156862" d="M 289.5 49 L 300 49.5 L 289.5 50 L 289.5 49 Z " /><path fill="rgb(84,115,171)" stroke="rgb(84,115,171)" stroke-width="1" opacity="0.5450980392156862" d="M 323.5 49 L 336 49.5 L 323.5 50 L 323.5 49 Z " /><path fill="rgb(84,115,171)" stroke="rgb(84,115,171)" stroke-width="1" opacity="0.5450980392156862" d="M 337.5 49 L 352 49.5 L 337.5 50 L 337.5 49 Z " /><path fill="rgb(84,115,171)" stroke="rgb(84,115,171)" stroke-width="1" opacity="0.5450980392156862" d="M 279.5 52 L 280 58.5 L 279 58.5 L 279.5 52 Z " /><path fill="rgb(84,115,171)" stroke="rgb(84,115,171)" stroke-width="1" opacity="0.5450980392156862" d="M 393.5 56 L 394 68.5 L 393 68.5 L 393.5 56 Z " /><path fill="rgb(84,115,171)" stroke="rgb(84,115,171)" stroke-width="1" opacity="0.5450980392156862" d="M 291.5 67 L 313 67 L 313 74.5 L 312 74.5 Q 312.8 68.3 311.5 68 L 291 68 L 291.5 80 L 293.5 80 L 296.5 79 L 300 80.5 L 291.5 81 L 290 79.5 L 290 68.5 L 291.5 67 Z " /><path fill="rgb(84,115,171)" stroke="rgb(84,115,171)" stroke-width="1" opacity="0.5450980392156862" d="M 374.5 69 L 379 69.5 L 374.5 70 L 374.5 69 Z " /><path fill="rgb(84,115,171)" stroke="rgb(84,115,171)" stroke-width="1" opacity="0.5450980392156862" d="M 312.5 80 L 313 84.5 L 312 84.5 L 312.5 80 Z " /><path fill="rgb(84,115,171)" stroke="rgb(84,115,171)" stroke-width="1" opacity="0.5450980392156862" d="M 342.5 80 L 362 80.5 L 342.5 81 L 342.5 80 Z " /><path fill="rgb(84,115,171)" stroke="rgb(84,115,171)" stroke-width="1" opacity="0.5450980392156862" d="M 279.5 85 L 280 98.5 L 281.5 100 L 300 100.5 L 280 101 L 279 98.5 L 279.5 85 Z " /><path fill="rgb(84,115,171)" stroke="rgb(84,115,171)" stroke-width="1" opacity="0.5450980392156862" d="M 245.5 89 L 246 111.5 L 245 111.5 L 245.5 89 Z " /><path fill="rgb(84,115,171)" stroke="rgb(84,115,171)" stroke-width="1" opacity="0.5450980392156862" d="M 245.5 113 L 246 121.5 L 245 121.5 L 245.5 113 Z " /><path fill="rgb(84,115,171)" stroke="rgb(84,115,171)" stroke-width="1" opacity="0.5450980392156862" d="M 245.5 127 L 246 136.5 L 245 136.5 L 245.5 127 Z " /><path fill="rgb(84,115,171)" stroke="rgb(84,115,171)" stroke-width="1" opacity="0.5450980392156862" d="M 267 129 L 312.5 129 L 313 129.5 L 313 138.5 L 312 138.5 L 312 130.5 L 311.5 130 L 268 130 L 268 159.5 L 266.5 161 L 236 161 L 236 204.5 L 237.5 206 L 258 206.5 L 236.5 207 L 235 205.5 L 235 161.5 L 236.5 160 L 265.5 160 L 267 158.5 L 267 129 Z " /><path fill="rgb(84,115,171)" stroke="rgb(84,115,171)" stroke-width="1" opacity="0.5450980392156862" d="M 329.5 129 L 375 129 L 375 192.5 L 375.5 193 L 395.5 193 L 397 192.5 L 395.5 194 L 375.5 194 L 374 192.5 L 374 130 L 329.5 130 L 329 133.5 L 329 135.5 L 329 173.5 L 330.5 175 L 334.5 174 L 335.5 175 L 350 175 L 350.5 172 L 351 176 L 329.5 176 L 328 174.5 L 328 130.5 L 329.5 129 Z " /><path fill="rgb(84,115,171)" stroke="rgb(84,115,171)" stroke-width="1" opacity="0.5450980392156862" d="M 245.5 139 L 246 143.5 L 244.5 145 L 220 145 L 219.5 223 L 219 144 L 244.5 144 L 245.5 139 Z " /><path fill="rgb(84,115,171)" stroke="rgb(84,115,171)" stroke-width="1" opacity="0.5450980392156862" d="M 312.5 140 L 313 168.5 L 312 168.5 L 312.5 140 Z " /><path fill="rgb(84,115,171)" stroke="rgb(84,115,171)" stroke-width="1" opacity="0.5450980392156862" d="M 343.5 141 L 345.5 141 L 347.5 142 L 361.5 142 L 363 143.5 L 362 145.5 Q 364.5 147 363 152.5 L 362 153.5 L 362 162.5 L 363 167.5 L 362 168.5 L 362 180.5 L 363 181.5 L 363 189.5 L 362 191.5 Q 364.3 192.8 361.5 194 L 281.5 194 L 281 193.5 L 281 176.5 L 282.5 175 L 306.5 175 L 307.5 174 L 312 175 L 312.5 172 L 313 176 L 282 176 L 282 193 L 360.5 193 Q 361.8 192.8 361 186.5 L 362 184.5 L 361 183.5 L 361 143 L 342 143 L 342 162 L 351 162 L 351 165.5 L 350 165.5 L 348.5 163 Q 342.5 164.5 341 161.5 L 341 143.5 L 343.5 141 Z " /><path fill="rgb(84,115,171)" stroke="rgb(84,115,171)" stroke-width="1" opacity="0.5450980392156862" d="M 280.5 162 L 300 162.5 L 280.5 163 L 280.5 162 Z " /><path fill="rgb(84,115,171)" stroke="rgb(84,115,171)" stroke-width="1" opacity="0.5450980392156862" d="M 249.5 173 L 253 173.5 L 249 174 L 248.5 192 L 248 174.5 L 249.5 173 Z " /><path fill="rgb(84,115,171)" stroke="rgb(84,115,171)" stroke-width="1" opacity="0.5450980392156862" d="M 254.5 173 L 257 173.5 L 254.5 174 L 254.5 173 Z " /><path fill="rgb(84,115,171)" stroke="rgb(84,115,171)" stroke-width="1" opacity="0.5450980392156862" d="M 266.5 173 L 269 174.5 L 268.5 191 L 268 174 L 266.5 173 Z " /><path fill="rgb(84,115,171)" stroke="rgb(84,115,171)" stroke-width="1" opacity="0.5450980392156862" d="M 219.5 252 L 234.5 252 L 240 257.5 L 234.5 253 L 219.5 253 L 214 258.5 L 214 278.5 L 218.5 283 L 220 283.5 L 218.5 284 L 213 278.5 L 213 258.5 L 217.5 253 L 219.5 252 Z " /><path fill="rgb(84,115,171)" stroke="rgb(84,115,171)" stroke-width="1" opacity="0.5450980392156862" d="M 256.5 252 Q 262.5 250.5 264 253.5 L 264 276 L 272 276 L 272 252.5 L 272.5 252 L 279.5 252 L 281 253.5 L 281 278.5 L 279 282 L 274.5 284 L 275.5 282 L 279 279.5 L 280 277.5 L 280 254.5 Q 278.4 251.5 273 253 L 273 275.5 L 271.5 277 L 263 277 L 263 253.5 L 262.5 253 L 256 253 L 256 278.5 L 260.5 283 L 262 283.5 L 260.5 284 L 256 281 L 255 278.5 L 255 253.5 L 256.5 252 Z " /><path fill="rgb(84,115,171)" stroke="rgb(84,115,171)" stroke-width="1" opacity="0.5450980392156862" d="M 296 252 L 315.5 252 L 318 253 L 319.5 256 Q 322.1 255.2 321 258.5 L 320 258.5 L 316.5 254 L 314.5 253 L 297.5 253 L 296 253.5 L 296 252 Z " /><path fill="rgb(84,115,171)" stroke="rgb(84,115,171)" stroke-width="1" opacity="0.5450980392156862" d="M 336 252 L 351.5 252 L 353 253.5 Q 354 258 351.5 259 L 349 260.5 L 349 276.5 L 351.5 277 L 353 279.5 L 352 281.5 L 353 284 L 349.5 285 L 349.5 284 L 351 283.5 L 351 278 L 348 277.5 L 348 259 L 351 257.5 L 352 254.5 L 350.5 253 L 337 253 Q 335.8 257.6 338.5 259 L 341 260.5 L 341 276.5 L 339.5 278 Q 334.9 276.6 337 282.5 L 337.5 284 Q 334.8 284.6 336 278.5 L 340 275.5 L 340 260.5 L 338.5 260 L 336 259 L 336 252 Z " /><path fill="rgb(84,115,171)" stroke="rgb(84,115,171)" stroke-width="1" opacity="0.5450980392156862" d="M 368.5 252 L 387.5 252 L 389 253.5 Q 390.5 259.5 387.5 261 L 385 260.5 L 388 258.5 Q 388.6 253.1 387.5 253 L 368 253 L 368 282.5 L 369 283.5 L 367 284 L 366 277.5 L 367 276.5 L 367 265.5 L 366 263.5 L 367 262.5 L 367 253.5 L 368.5 252 Z " /><path fill="rgb(84,115,171)" stroke="rgb(84,115,171)" stroke-width="1" opacity="0.5450980392156862" d="M 403.5 252 Q 409.5 250.5 411 253.5 L 414 261.5 L 414 265.5 L 415.5 267 L 417.5 266 L 418 268 L 414 268 L 414 266.5 L 410 253 L 403 253 L 403 255.5 L 402 255.5 L 403.5 252 Z " /><path fill="rgb(84,115,171)" stroke="rgb(84,115,171)" stroke-width="1" opacity="0.5450980392156862" d="M 421.5 252 Q 428.3 250.3 430 253.5 L 426.5 265 L 426 262.5 L 429 253 L 422.5 253 L 421 254.5 L 420.5 257 L 420 253.5 L 421.5 252 Z " /><path fill="rgb(84,115,171)" stroke="rgb(84,115,171)" stroke-width="1" opacity="0.5450980392156862" d="M 403.5 257 L 406 265.5 L 405 265.5 L 403.5 257 Z " /><path fill="rgb(84,115,171)" stroke="rgb(84,115,171)" stroke-width="1" opacity="0.5450980392156862" d="M 419.5 258 L 420 260.5 L 418.5 265 L 418 261.5 L 419.5 258 Z " /><path fill="rgb(84,115,171)" stroke="rgb(84,115,171)" stroke-width="1" opacity="0.5450980392156862" d="M 223.5 259 Q 230.3 257.3 232 260.5 L 231.5 271 L 231 260 L 223 260 L 223 277 L 225 277.5 L 222 278 L 222 260.5 L 223.5 259 Z " /><path fill="rgb(84,115,171)" stroke="rgb(84,115,171)" stroke-width="1" opacity="0.5450980392156862" d="M 240.5 259 L 241 276.5 L 239 279.5 L 241 280 L 242 283.5 L 240 284 Q 241.5 280.2 238.5 281 L 237 279.5 L 240 276.5 L 240.5 259 Z " /><path fill="rgb(84,115,171)" stroke="rgb(84,115,171)" stroke-width="1" opacity="0.5450980392156862" d="M 304.5 259 L 306 259.5 Q 302.3 261.4 304 268 L 312 268 L 312 263.5 L 313 263.5 L 313 269 L 304.5 269 Q 301.3 267.3 303 260.5 L 304.5 259 Z " /><path fill="rgb(84,115,171)" stroke="rgb(84,115,171)" stroke-width="1" opacity="0.5450980392156862" d="M 308.5 259 Q 313.9 257.1 313 260.5 L 313.5 262 Q 312.8 259.3 308.5 260 L 308.5 259 Z " /><path fill="rgb(84,115,171)" stroke="rgb(84,115,171)" stroke-width="1" opacity="0.5450980392156862" d="M 321.5 260 L 322 268.5 L 319 272.5 L 319 275.5 L 321 278.5 L 320 278.5 Q 317.4 277.1 318 272.5 L 321 268.5 L 321.5 260 Z " /><path fill="rgb(84,115,171)" stroke="rgb(84,115,171)" stroke-width="1" opacity="0.5450980392156862" d="M 375.5 264 L 376 266 L 380.5 267 L 382.5 267 Q 387.8 265.8 389 268.5 L 388.5 271 L 386.5 268 L 376.5 268 L 375 266.5 L 375.5 264 Z " /><path fill="rgb(84,115,171)" stroke="rgb(84,115,171)" stroke-width="1" opacity="0.5450980392156862" d="M 425.5 266 L 426 268.5 L 425 268.5 L 425.5 266 Z " /><path fill="rgb(84,115,171)" stroke="rgb(84,115,171)" stroke-width="1" opacity="0.5450980392156862" d="M 406.5 267 L 408 272.5 L 407 272.5 L 406.5 267 Z " /><path fill="rgb(84,115,171)" stroke="rgb(84,115,171)" stroke-width="1" opacity="0.5450980392156862" d="M 424.5 270 L 425 272.5 L 424 275 L 420 276.5 L 419.5 284 L 419 276.5 L 420 274 L 424 272.5 L 424.5 270 Z " /><path fill="rgb(84,115,171)" stroke="rgb(84,115,171)" stroke-width="1" opacity="0.5450980392156862" d="M 231.5 272 L 232 279 L 226.5 279 L 226 277.5 L 227.5 278 L 231 278 L 231.5 272 Z " /><path fill="rgb(84,115,171)" stroke="rgb(84,115,171)" stroke-width="1" opacity="0.5450980392156862" d="M 388.5 272 L 386.5 275 L 376.5 275 L 375.5 276 L 375 274 L 386.5 274 L 388.5 272 Z " /><path fill="rgb(84,115,171)" stroke="rgb(84,115,171)" stroke-width="1" opacity="0.5450980392156862" d="M 408.5 274 L 412 275.5 L 410.5 275 Q 407.5 275.5 408.5 274 Z " /><path fill="rgb(84,115,171)" stroke="rgb(84,115,171)" stroke-width="1" opacity="0.5450980392156862" d="M 304.5 275 Q 311.5 273.5 311 276.5 L 314.5 283 L 316 283.5 L 313 284 L 309.5 276 Q 305 275 304 277.5 Q 305.5 284.5 302.5 284 L 303 282.5 Q 301.5 276.5 304.5 275 Z " /><path fill="rgb(84,115,171)" stroke="rgb(84,115,171)" stroke-width="1" opacity="0.5450980392156862" d="M 375.5 278 L 376 284 L 374 283.5 L 375.5 278 Z " /><path fill="rgb(84,115,171)" stroke="rgb(84,115,171)" stroke-width="1" opacity="0.5450980392156862" d="M 321.5 280 L 323 283.5 L 322 283.5 L 321.5 280 Z " /><path fill="rgb(84,115,171)" stroke="rgb(84,115,171)" stroke-width="1" opacity="0.5450980392156862" d="M 411.5 281 L 413 283.5 L 411 282.5 L 411.5 281 Z " /><path fill="rgb(84,115,171)" stroke="rgb(84,115,171)" stroke-width="1" opacity="0.5450980392156862" d="M 342.5 283 L 346 283.5 L 342.5 284 L 342.5 283 Z " /><path fill="rgb(84,115,171)" stroke="rgb(84,115,171)" stroke-width="1" opacity="0.5450980392156862" d="M 221.5 284 L 240 287 L 240.5 285 L 241 287.5 Q 239.7 290.3 238.5 288 L 221.5 285 L 221.5 284 Z " /><path fill="rgb(84,115,171)" stroke="rgb(84,115,171)" stroke-width="1" opacity="0.5450980392156862" d="M 141.5 308 L 142.5 310 L 141.5 308 Z " /><path fill="rgb(84,115,171)" stroke="rgb(84,115,171)" stroke-width="1" opacity="0.5450980392156862" d="M 152.5 309 L 153 320.5 L 152 320.5 L 152.5 309 Z " /><path fill="rgb(84,115,171)" stroke="rgb(84,115,171)" stroke-width="1" opacity="0.5450980392156862" d="M 303.5 309 L 308.5 315 L 303.5 309 Z " /><path fill="rgb(84,115,171)" stroke="rgb(84,115,171)" stroke-width="1" opacity="0.5450980392156862" d="M 342.5 309 L 343 319.5 L 342 319.5 L 342.5 309 Z " /><path fill="rgb(84,115,171)" stroke="rgb(84,115,171)" stroke-width="1" opacity="0.5450980392156862" d="M 105.5 310 L 106 315.5 L 105 315.5 L 105.5 310 Z " /><path fill="rgb(84,115,171)" stroke="rgb(84,115,171)" stroke-width="1" opacity="0.5450980392156862" d="M 160.5 310 L 161 320.5 L 160 320.5 L 160.5 310 Z " /><path fill="rgb(84,115,171)" stroke="rgb(84,115,171)" stroke-width="1" opacity="0.5450980392156862" d="M 313.5 310 L 314 321.5 L 313 321.5 L 313.5 310 Z " /><path fill="rgb(84,115,171)" stroke="rgb(84,115,171)" stroke-width="1" opacity="0.5450980392156862" d="M 383.5 310 L 386 311.5 L 384.5 311 L 381.5 313 L 383.5 310 Z " /><path fill="rgb(84,115,171)" stroke="rgb(84,115,171)" stroke-width="1" opacity="0.5450980392156862" d="M 621.5 310 L 623.5 313 L 621.5 310 Z " /><path fill="rgb(84,115,171)" stroke="rgb(84,115,171)" stroke-width="1" opacity="0.5450980392156862" d="M 85.5 311 L 86 321.5 L 85 321.5 L 85.5 311 Z " /><path fill="rgb(84,115,171)" stroke="rgb(84,115,171)" stroke-width="1" opacity="0.5450980392156862" d="M 346.5 311 L 346.5 314 Q 343.5 312.5 346.5 311 Z " /><path fill="rgb(84,115,171)" stroke="rgb(84,115,171)" stroke-width="1" opacity="0.5450980392156862" d="M 419.5 311 L 420 321.5 L 419 321.5 L 419.5 311 Z " /><path fill="rgb(84,115,171)" stroke="rgb(84,115,171)" stroke-width="1" opacity="0.5450980392156862" d="M 497.5 311 L 499 313.5 L 498 313.5 L 497.5 311 Z " /><path fill="rgb(84,115,171)" stroke="rgb(84,115,171)" stroke-width="1" opacity="0.5450980392156862" d="M 509.5 311 L 510 313.5 L 509 313.5 L 509.5 311 Z " /><path fill="rgb(84,115,171)" stroke="rgb(84,115,171)" stroke-width="1" opacity="0.5450980392156862" d="M 208.5 312 L 209 314.5 L 208 314.5 L 208.5 312 Z " /><path fill="rgb(84,115,171)" stroke="rgb(84,115,171)" stroke-width="1" opacity="0.5450980392156862" d="M 445.5 312 L 446 315.5 L 445 315.5 L 445.5 312 Z " /><path fill="rgb(84,115,171)" stroke="rgb(84,115,171)" stroke-width="1" opacity="0.5450980392156862" d="M 480.5 312 L 481 314.5 L 480 314.5 L 480.5 312 Z " /><path fill="rgb(84,115,171)" stroke="rgb(84,115,171)" stroke-width="1" opacity="0.5450980392156862" d="M 605.5 312 L 606 314.5 L 605 314.5 L 605.5 312 Z " /><path fill="rgb(84,115,171)" stroke="rgb(84,115,171)" stroke-width="1" opacity="0.5450980392156862" d="M 242.5 313 L 241.5 315 L 242.5 313 Z " /><path fill="rgb(84,115,171)" stroke="rgb(84,115,171)" stroke-width="1" opacity="0.5450980392156862" d="M 74.5 314 L 75 319.5 L 74 319.5 L 74.5 314 Z " /><path fill="rgb(84,115,171)" stroke="rgb(84,115,171)" stroke-width="1" opacity="0.5450980392156862" d="M 164.5 314 L 163.5 316 L 164.5 314 Z " /><path fill="rgb(84,115,171)" stroke="rgb(84,115,171)" stroke-width="1" opacity="0.5450980392156862" d="M 620.5 314 L 621 316.5 L 620 316.5 L 620.5 314 Z " /><path fill="rgb(84,115,171)" stroke="rgb(84,115,171)" stroke-width="1" opacity="0.5450980392156862" d="M 21.5 315 L 22 316.5 L 20.5 319 L 20 317.5 L 21.5 315 Z " /><path fill="rgb(84,115,171)" stroke="rgb(84,115,171)" stroke-width="1" opacity="0.5450980392156862" d="M 118.5 315 L 117.5 317 L 118.5 315 Z " /><path fill="rgb(84,115,171)" stroke="rgb(84,115,171)" stroke-width="1" opacity="0.5450980392156862" d="M 141.5 315 L 142 321.5 L 141 321.5 L 141.5 315 Z " /><path fill="rgb(84,115,171)" stroke="rgb(84,115,171)" stroke-width="1" opacity="0.5450980392156862" d="M 229.5 315 L 228 317.5 L 230 320.5 L 227 318.5 L 229.5 315 Z " /><path fill="rgb(84,115,171)" stroke="rgb(84,115,171)" stroke-width="1" opacity="0.5450980392156862" d="M 305.5 316 L 310.5 322 L 305.5 316 Z " /><path fill="rgb(84,115,171)" stroke="rgb(84,115,171)" stroke-width="1" opacity="0.5450980392156862" d="M 466.5 316 L 467 319.5 L 466 319.5 L 466.5 316 Z " /><path fill="rgb(84,115,171)" stroke="rgb(84,115,171)" stroke-width="1" opacity="0.5450980392156862" d="M 563.5 316 L 568 318.5 L 564 319 L 563.5 316 Z " /><path fill="rgb(84,115,171)" stroke="rgb(84,115,171)" stroke-width="1" opacity="0.5450980392156862" d="M 575.5 316 L 576 318.5 L 575 318.5 L 575.5 316 Z " /><path fill="rgb(84,115,171)" stroke="rgb(84,115,171)" stroke-width="1" opacity="0.5450980392156862" d="M 207.5 317 L 206.5 319 L 207.5 317 Z " /><path fill="rgb(84,115,171)" stroke="rgb(84,115,171)" stroke-width="1" opacity="0.5450980392156862" d="M 216.5 317 L 217 321.5 L 216 321.5 L 216.5 317 Z " /><path fill="rgb(84,115,171)" stroke="rgb(84,115,171)" stroke-width="1" opacity="0.5450980392156862" d="M 469.5 317 Q 472.5 318.5 469.5 320 L 469.5 317 Z " /><path fill="rgb(84,115,171)" stroke="rgb(84,115,171)" stroke-width="1" opacity="0.5450980392156862" d="M 498.5 317 L 499.5 319 Q 496.7 319.7 498.5 317 Z " /><path fill="rgb(84,115,171)" stroke="rgb(84,115,171)" stroke-width="1" opacity="0.5450980392156862" d="M 597.5 317 L 601 318.5 L 598.5 319 L 597.5 317 Z " /><path fill="rgb(84,115,171)" stroke="rgb(84,115,171)" stroke-width="1" opacity="0.5450980392156862" d="M 110.5 318 L 111 321.5 L 110 321.5 L 110.5 318 Z " /><path fill="rgb(84,115,171)" stroke="rgb(84,115,171)" stroke-width="1" opacity="0.5450980392156862" d="M 445.5 318 L 446 321.5 L 445 321.5 L 445.5 318 Z " /><path fill="rgb(84,115,171)" stroke="rgb(84,115,171)" stroke-width="1" opacity="0.5450980392156862" d="M 624.5 318 L 625.5 320 L 624.5 318 Z " /><path fill="rgb(84,115,171)" stroke="rgb(84,115,171)" stroke-width="1" opacity="0.5450980392156862" d="M 59.5 319 L 60.5 321 L 59.5 319 Z " /><path fill="rgb(84,115,171)" stroke="rgb(84,115,171)" stroke-width="1" opacity="0.5450980392156862" d="M 223.5 319 L 225.5 322 L 223.5 319 Z " /><path fill="rgb(84,115,171)" stroke="rgb(84,115,171)" stroke-width="1" opacity="0.5450980392156862" d="M 32.5 320 L 33.5 322 L 32.5 320 Z " /></svg>